<?xml version="1.0" standalone="no"?>
<!DOCTYPE svg PUBLIC "-//W3C//DTD SVG 20010904//EN"
 "http://www.w3.org/TR/2001/REC-SVG-20010904/DTD/svg10.dtd">
<svg version="1.0" xmlns="http://www.w3.org/2000/svg"
 width="16.000000pt" height="16.000000pt" viewBox="0 0 16.000000 16.000000"
 preserveAspectRatio="xMidYMid meet">
<metadata>
Created by potrace 1.11, written by Peter Selinger 2001-2013
</metadata>
<g transform="translate(0.000000,16.000000) scale(0.004000,-0.004000)"
fill="#000000" stroke="none">
<path d="M71 3995 c3 -2 34 -12 68 -21 53 -13 65 -14 72 -2 16 25 9 28 -68 28
-42 0 -74 -2 -72 -5z"/>
<path d="M262 3982 c25 -17 26 -20 13 -39 -14 -19 -12 -21 28 -37 73 -28 76
-25 51 47 l-16 47 -51 0 -52 0 27 -18z"/>
<path d="M408 3920 c20 -59 31 -81 47 -85 11 -3 36 -11 57 -17 20 -6 56 -8 82
-4 38 6 46 11 46 29 l1 22 19 -23 c10 -12 20 -27 22 -32 6 -18 80 -39 104 -30
16 7 26 4 39 -10 9 -10 29 -22 44 -25 15 -3 50 -21 78 -39 65 -43 76 -47 261
-93 13 -3 22 -1 22 6 0 6 6 11 14 11 18 0 68 -59 60 -71 -3 -5 -1 -9 5 -9 15
0 123 29 129 34 2 3 7 29 11 58 6 46 8 49 14 26 8 -30 32 -33 61 -9 19 16 156
26 156 11 0 -14 -30 -27 -81 -35 -57 -8 -63 -13 -76 -51 -17 -48 -1 -66 50
-57 23 3 53 13 66 22 14 9 34 15 45 13 15 -2 12 2 -11 17 -40 25 -42 36 -7 27
14 -4 39 -1 55 6 28 12 29 14 25 80 -2 38 -1 68 3 68 4 0 18 -21 31 -47 20
-41 25 -44 28 -25 2 12 10 22 18 22 13 0 17 -9 17 -45 0 -8 -1 -45 -2 -81 l-1
-66 -31 7 c-22 5 -34 3 -40 -6 -12 -20 9 -29 71 -29 49 0 56 3 67 26 7 14 9
39 6 55 -4 22 -2 29 11 29 12 0 16 9 16 35 0 25 4 35 15 35 12 0 13 -5 7 -17
-5 -10 -8 -26 -7 -35 2 -10 -1 -20 -6 -24 -13 -8 -11 -41 6 -73 16 -31 45 -48
55 -31 8 12 140 9 140 -4 0 -14 122 1 132 16 7 10 11 10 21 -4 17 -22 60 -13
53 11 -3 9 -8 28 -11 43 -7 29 -21 37 -79 44 -22 3 -47 9 -57 15 -24 12 -59
11 -59 -2 0 -6 -8 -2 -17 10 -10 11 -52 31 -93 45 -84 27 -128 45 -150 61 -8
6 -40 20 -70 32 -208 79 -220 85 -220 105 0 14 91 4 120 -12 36 -21 100 -40
135 -40 54 -1 74 -10 77 -39 3 -25 6 -26 63 -28 33 -1 77 -6 97 -11 32 -8 36
-7 31 7 -4 9 -10 21 -15 28 -5 6 -5 14 0 17 13 8 27 -11 41 -56 15 -44 24 -52
52 -43 20 7 21 12 16 74 -3 36 -11 84 -19 106 l-13 40 -3 -45 c-7 -120 -28
-116 -31 6 0 48 1 96 5 106 9 31 31 20 37 -19 4 -20 24 -73 46 -117 22 -45 48
-112 58 -151 l19 -69 57 -12 c31 -6 69 -9 83 -6 24 4 25 8 19 41 -9 47 -11 53
-18 71 -3 8 -11 42 -18 75 -9 49 -13 56 -20 38 -4 -12 -8 -59 -8 -104 0 -44
-2 -83 -5 -86 -19 -20 -46 227 -27 251 6 7 11 18 10 22 -7 39 19 45 58 14 27
-21 83 -28 83 -10 0 6 9 10 21 10 15 0 19 -5 15 -15 -3 -10 3 -17 20 -21 14
-4 28 -4 31 0 4 3 13 0 22 -8 21 -18 91 -31 91 -16 0 6 3 9 8 7 4 -3 29 -1 55
3 47 7 49 6 65 -24 13 -26 41 -94 42 -103 0 -2 -11 -3 -25 -3 -14 0 -25 -4
-25 -10 0 -16 -37 -12 -44 5 -3 8 -15 15 -26 15 -11 0 -20 7 -20 15 0 8 -10
17 -22 19 -100 20 -148 13 -148 -22 -1 -26 -29 28 -30 56 0 12 -5 22 -10 22
-6 0 -7 -11 -3 -27 8 -27 8 -47 2 -128 -1 -22 1 -67 5 -100 4 -33 7 -69 7 -79
0 -35 16 -54 44 -48 15 2 37 -1 51 -8 13 -8 26 -11 29 -8 3 3 -2 33 -11 67 -8
35 -13 65 -10 68 6 6 35 -61 43 -99 5 -25 33 -41 33 -19 0 18 34 22 47 5 8
-11 20 -14 37 -10 13 3 35 2 48 -2 35 -13 61 -4 55 19 -4 14 1 21 19 25 26 7
75 1 107 -11 20 -8 23 17 7 59 -11 30 -7 31 89 27 l53 -2 -4 30 c-7 45 7 38
26 -13 16 -41 21 -46 64 -56 140 -35 157 -24 124 79 -12 37 -22 77 -22 88 0
37 69 46 97 13 10 -11 25 -20 33 -20 9 0 21 -5 26 -10 13 -13 146 -50 156 -44
4 3 42 -5 85 -17 106 -29 213 -48 213 -38 0 5 -12 11 -27 15 -68 15 -212 55
-248 69 -39 14 -38 15 60 10 55 -3 126 -8 158 -11 53 -6 57 -5 57 15 0 17 -7
21 -32 23 -31 1 -46 3 -58 8 -3 1 -63 3 -134 6 -157 5 -352 29 -402 50 -20 8
-51 16 -68 16 -17 0 -35 4 -41 8 -5 4 -31 10 -57 13 -26 4 -100 23 -165 42
-169 52 -181 54 -256 55 -47 0 -114 12 -216 39 -81 22 -161 40 -177 39 -16 0
-58 5 -94 11 -39 6 -214 11 -436 11 -309 0 -378 -3 -408 -15 -20 -8 -36 -19
-36 -23 0 -4 -10 -13 -21 -20 -29 -18 -48 0 -25 23 9 9 16 21 16 26 0 5 -43 9
-95 9 -76 0 -101 -4 -130 -20 -20 -11 -45 -20 -57 -20 -20 0 -21 1 -3 20 18
20 17 20 -223 20 l-242 0 0 -22 c-1 -23 -1 -23 -15 2 -8 14 -14 19 -15 12 0
-14 -48 -62 -61 -62 -5 0 -9 7 -9 15 0 8 6 15 14 15 12 0 26 20 26 36 0 2 -45
4 -99 4 l-99 0 26 -80z m1642 55 c0 -17 -49 -85 -61 -85 -12 0 -3 54 10 58 6
2 11 10 11 18 0 8 9 14 20 14 11 0 20 -2 20 -5z m-340 -75 c0 -20 -2 -22 -10
-10 -5 8 -10 26 -10 40 0 20 2 22 10 10 5 -8 10 -26 10 -40z m765 30 c13 -6
15 -9 5 -9 -8 0 -22 4 -30 9 -18 12 -2 12 25 0z m-1195 -9 c0 -6 -4 -12 -8
-15 -5 -3 -9 1 -9 9 0 8 4 15 9 15 4 0 8 -4 8 -9z m25 -11 c3 -5 1 -10 -4 -10
-6 0 -11 5 -11 10 0 6 2 10 4 10 3 0 8 -4 11 -10z m202 -17 c-3 -33 -37 -41
-62 -13 -18 20 -17 20 13 20 17 0 34 5 37 10 10 17 14 11 12 -17z m-280 -15
c-3 -8 -6 -5 -6 6 -1 11 2 17 5 13 3 -3 4 -12 1 -19z m218 -61 c11 -40 -13
-34 -31 8 -17 41 -9 67 11 37 8 -10 17 -31 20 -45z m485 53 c0 -5 -7 -10 -15
-10 -8 0 -15 5 -15 10 0 6 7 10 15 10 8 0 15 -4 15 -10z m-1152 -11 c17 -6 52
-13 78 -17 44 -7 77 -32 61 -48 -10 -10 -94 15 -157 47 -56 29 -45 40 18 18z
m2221 -14 c46 -14 86 -27 89 -30 10 -10 -90 -5 -110 6 -28 15 -30 9 -12 -45
10 -28 13 -57 9 -74 l-7 -27 -14 28 c-8 15 -20 27 -27 27 -9 0 -9 3 1 9 10 6
11 13 1 34 -7 15 -15 27 -19 27 -3 0 -6 16 -7 35 -1 19 2 35 5 35 4 0 45 -12
91 -25z m-671 -46 l-3 -44 -19 37 c-16 31 -17 40 -6 53 20 24 32 4 28 -46z
m29 -41 c-3 -8 -6 -5 -6 6 -1 11 2 17 5 13 3 -3 4 -12 1 -19z m423 -48 c0 -5
-9 -10 -20 -10 -11 0 -20 5 -20 10 0 6 9 10 20 10 11 0 20 -4 20 -10z m549
-31 c-17 -14 -25 -17 -28 -8 -2 7 7 21 20 32 31 25 39 3 8 -24z m-1429 -19 c0
-41 -14 -61 -24 -34 -8 21 -8 69 0 77 14 13 24 -6 24 -43z m135 -40 c-3 -5
-11 -10 -16 -10 -6 0 -7 5 -4 10 3 6 11 10 16 10 6 0 7 -4 4 -10z m725 -60 c0
-5 -4 -10 -9 -10 -6 0 -13 5 -16 10 -3 6 1 10 9 10 9 0 16 -4 16 -10z m90 -19
c0 -19 -42 -23 -58 -7 -15 15 -13 16 21 16 20 0 37 -4 37 -9z"/>
<path d="M2870 3989 c14 -6 34 -18 45 -28 22 -20 75 -27 75 -10 0 14 50 7 130
-20 95 -32 148 -38 156 -17 7 18 26 21 52 7 9 -6 30 -12 45 -16 15 -3 26 -9
23 -14 -8 -13 32 -50 62 -57 15 -3 37 -10 50 -15 13 -5 34 -9 47 -9 13 0 26
-4 29 -9 8 -12 53 -2 67 15 17 21 32 18 184 -31 145 -46 165 -51 165 -37 0 5
-41 21 -91 37 -50 16 -93 33 -95 37 -3 4 15 8 39 8 43 0 43 0 39 31 -4 28 -2
30 17 24 12 -4 21 -2 21 4 0 6 11 11 25 11 14 0 25 6 25 13 0 8 4 7 10 -3 7
-11 10 0 10 38 l0 52 -225 0 -224 0 13 -37 c7 -21 16 -50 19 -64 7 -27 7 -27
-34 -18 -23 5 -53 16 -67 23 l-26 14 31 16 c38 19 45 29 37 50 -8 22 -115 21
-195 -1 -53 -14 -68 -15 -122 -4 -78 17 -374 25 -337 10z m919 -58 c16 -1 21
-5 17 -16 -3 -9 0 -15 9 -15 8 0 15 -4 15 -8 0 -11 -30 -38 -50 -45 -11 -4
-10 -6 4 -6 11 -1 17 -3 14 -6 -3 -3 -38 1 -79 10 -116 24 -120 25 -113 36 12
19 108 58 134 54 14 -2 36 -4 49 -4z"/>
<path d="M2805 3981 c-3 -5 -1 -12 5 -16 5 -3 10 1 10 9 0 18 -6 21 -15 7z"/>
<path d="M0 3800 c0 -99 3 -120 15 -120 11 0 13 -8 8 -31 l-6 -32 39 7 c53 10
64 22 64 68 0 31 3 39 14 35 8 -3 16 -1 18 5 7 20 28 -2 28 -28 0 -14 -4 -23
-8 -20 -5 3 -3 -21 3 -51 11 -57 26 -73 48 -55 7 6 29 13 49 17 21 4 42 13 49
21 17 20 47 17 54 -6 3 -11 15 -20 25 -20 23 0 92 31 102 45 5 6 18 4 36 -6
25 -14 34 -14 60 -4 17 8 33 10 37 7 4 -4 26 -8 49 -8 23 -1 107 -18 188 -38
81 -20 183 -43 227 -51 79 -15 151 -12 151 6 0 12 -32 11 -63 0 -14 -6 -27 -7
-31 -4 -7 7 -131 51 -176 63 -91 23 -107 28 -128 39 -23 12 -64 19 -142 24
-51 3 -79 15 -61 26 18 12 -129 69 -193 75 -37 4 -68 14 -85 27 -23 18 -34 20
-97 14 -39 -3 -89 -3 -110 1 l-39 7 32 11 c44 15 43 28 0 45 -50 19 -70 10
-56 -26 5 -15 7 -39 4 -53 -4 -19 -3 -21 5 -10 5 8 10 10 10 4 0 -12 -29 -40
-33 -33 -24 43 -26 48 -15 51 8 3 5 13 -9 27 -12 13 -19 29 -17 36 5 13 -24
55 -38 55 -5 0 -8 -54 -8 -120z"/>
<path d="M3305 3900 c-3 -5 1 -10 9 -10 9 0 16 5 16 10 0 6 -4 10 -9 10 -6 0
-13 -4 -16 -10z"/>
<path d="M2450 3880 c0 -6 10 -31 22 -56 l21 -46 12 33 c6 19 10 37 8 42 -7
13 -63 38 -63 27z"/>
<path d="M3957 3858 c-34 -12 -31 -27 11 -51 l32 -19 0 41 c0 44 -1 45 -43 29z"/>
<path d="M2800 3816 c0 -9 5 -16 10 -16 6 0 10 4 10 9 0 6 -4 13 -10 16 -5 3
-10 -1 -10 -9z"/>
<path d="M3905 3730 c-3 -5 3 -10 14 -10 12 0 21 5 21 10 0 6 -6 10 -14 10 -8
0 -18 -4 -21 -10z"/>
<path d="M3438 3645 c11 -35 22 -49 46 -60 19 -8 24 -14 14 -14 -23 -1 -22 -9
2 -73 11 -29 20 -64 20 -77 0 -22 3 -23 42 -18 23 3 48 13 54 22 10 13 22 15
58 10 58 -9 63 1 44 98 -12 63 -16 72 -37 75 -12 2 -31 -4 -42 -14 -18 -16
-19 -16 -19 4 0 23 -35 52 -62 52 -10 0 -27 -5 -37 -12 -25 -16 -70 3 -68 28
1 10 -5 20 -14 22 -15 3 -15 -1 -1 -43z m172 -75 c13 -9 12 -13 -7 -29 -13
-11 -23 -24 -23 -30 0 -20 -15 -10 -37 24 l-21 34 26 4 c15 2 32 5 37 5 6 1
17 -3 25 -8z"/>
<path d="M2240 3670 c0 -5 5 -10 11 -10 5 0 7 5 4 10 -3 6 -8 10 -11 10 -2 0
-4 -4 -4 -10z"/>
<path d="M3730 3595 c0 -3 8 -22 19 -43 10 -20 29 -68 41 -105 18 -54 26 -67
39 -61 9 3 25 9 36 12 11 3 26 14 33 24 17 24 32 23 32 -2 0 -16 7 -20 30 -20
32 0 53 26 31 39 -6 4 -14 21 -17 37 -2 16 -7 35 -9 42 -7 20 -54 14 -113 -14
-30 -14 -58 -22 -63 -17 -4 4 -9 28 -11 53 -2 29 -7 44 -15 43 -7 -2 -13 2
-13 7 0 6 -4 10 -10 10 -5 0 -10 -2 -10 -5z"/>
<path d="M2374 3555 c4 -16 17 -46 29 -65 l21 -34 10 32 c6 21 14 31 23 28 8
-3 13 2 13 13 0 19 -45 45 -61 35 -6 -3 -17 0 -26 8 -15 12 -16 10 -9 -17z"/>
<path d="M0 3545 c0 -14 5 -25 10 -25 6 0 10 4 10 9 0 5 14 13 31 16 37 8 21
25 -23 25 -23 0 -28 -4 -28 -25z"/>
<path d="M3080 3541 c0 -30 79 -69 143 -71 30 0 18 26 -20 44 -40 19 -123 37
-123 27z"/>
<path d="M2488 3529 c6 -7 12 -21 12 -30 0 -20 16 -33 30 -24 15 9 -5 48 -31
57 -19 7 -22 7 -11 -3z"/>
<path d="M3195 3530 c3 -5 8 -10 11 -10 2 0 4 5 4 10 0 6 -5 10 -11 10 -5 0
-7 -4 -4 -10z"/>
<path d="M106 3521 c-4 -6 -29 -13 -57 -17 l-50 -7 2 -78 c2 -75 3 -79 25 -79
35 0 36 -14 4 -45 -28 -27 -30 -34 -30 -101 0 -71 0 -72 30 -83 17 -5 30 -15
30 -20 0 -15 -33 -14 -48 1 -9 9 -12 7 -12 -8 0 -24 29 -39 110 -58 l58 -14
-5 42 c-4 38 -3 40 11 22 9 -11 16 -37 16 -59 l0 -39 -48 7 c-44 6 -49 4 -62
-19 -12 -23 -38 -33 -73 -27 -4 0 -6 -77 -6 -171 1 -95 4 -161 6 -145 3 20 14
31 41 43 20 8 71 48 113 89 70 69 80 75 118 75 22 0 41 -3 41 -6 0 -15 -163
-165 -214 -198 -31 -20 -56 -38 -56 -41 0 -3 16 -5 35 -5 24 0 35 5 35 15 0 9
9 15 23 14 16 -1 18 -2 5 -6 -10 -2 -18 -8 -18 -13 0 -12 28 -20 73 -20 85 0
-11 -30 -145 -46 l-58 -6 0 -119 c0 -71 4 -120 11 -124 5 -4 49 32 97 79 48
48 108 100 132 116 25 17 44 35 43 40 -2 5 11 18 27 30 36 25 38 40 8 40 -17
0 -13 5 17 20 82 42 146 69 143 61 -4 -13 -132 -155 -188 -211 -25 -25 -75
-67 -110 -95 -85 -67 -113 -97 -99 -105 12 -8 -23 -20 -58 -20 l-23 0 0 -249
c0 -167 4 -251 11 -253 7 -2 7 -12 0 -31 -31 -82 5 -136 53 -80 13 15 27 25
30 22 3 -3 -3 -16 -14 -29 -25 -29 -20 -34 50 -53 30 -8 94 -27 143 -41 48
-14 96 -26 107 -26 10 0 21 -4 24 -9 3 -5 27 -12 53 -16 26 -4 77 -18 113 -32
36 -14 88 -34 115 -44 28 -11 87 -30 133 -44 78 -23 84 -23 102 -7 14 11 20
29 20 55 0 50 20 45 36 -9 18 -62 57 -133 62 -112 4 22 18 23 26 3 7 -18 36
-20 36 -2 0 14 39 51 46 44 3 -2 0 -17 -6 -32 -6 -15 -8 -36 -5 -46 5 -16 9
-17 28 -6 12 7 25 16 28 21 4 5 14 6 22 3 9 -3 24 10 42 39 24 38 30 42 48 32
12 -6 52 -9 99 -6 52 3 78 1 78 -6 0 -14 -53 -69 -119 -126 -28 -24 -51 -47
-51 -52 0 -4 24 -8 53 -7 41 0 47 2 30 9 -39 16 -28 33 17 27 27 -3 43 -1 51
9 6 8 17 14 24 14 18 0 27 -28 12 -37 -18 -11 35 -21 56 -11 14 7 17 16 13 34
-5 19 -3 24 13 24 11 0 33 11 49 25 18 15 42 25 60 25 37 0 132 21 132 29 0 3
-23 7 -52 8 -33 1 -46 -2 -37 -8 10 -6 6 -9 -14 -9 -32 0 -83 24 -89 42 -3 9
-6 9 -12 0 -4 -7 -2 -12 3 -12 6 0 11 -4 11 -9 0 -9 -87 13 -99 25 -8 8 21 24
47 24 12 0 22 5 22 11 0 7 -18 9 -52 5 -190 -21 -154 -25 -418 49 -153 43
-200 55 -240 59 -47 5 -154 37 -190 56 -12 6 -42 15 -68 19 -26 5 -110 27
-187 50 -77 23 -188 55 -247 71 -150 40 -155 45 -77 63 75 18 59 22 -25 6 -32
-6 -60 -8 -63 -6 -7 8 28 57 41 57 7 0 22 10 34 23 l21 22 -47 3 c-52 3 -98
32 -50 32 18 0 34 11 52 35 22 28 24 35 11 35 -28 0 -11 23 46 63 138 97 175
94 90 -8 -51 -63 -96 -134 -88 -141 1 -2 41 33 87 77 47 45 111 103 143 130
32 27 149 140 260 250 111 111 225 219 252 240 105 82 150 123 149 136 -1 8 8
13 23 13 13 0 22 4 19 9 -3 5 10 16 30 26 19 9 57 35 83 58 114 98 170 137
200 137 19 0 43 11 64 29 18 16 46 33 63 37 45 11 49 16 23 35 l-24 17 30 8
c17 4 43 18 58 31 16 12 39 26 53 29 13 3 24 14 24 23 0 9 16 27 36 41 19 14
41 31 49 38 7 6 17 12 21 12 7 0 43 22 114 70 21 14 90 33 90 24 0 -8 -253
-248 -288 -273 -23 -17 -42 -37 -42 -44 0 -18 -46 -59 -105 -93 -27 -16 -74
-48 -102 -71 -29 -24 -59 -43 -66 -43 -18 0 -37 -21 -37 -39 0 -14 1 -14 10
-1 6 10 12 11 18 5 11 -12 62 -192 62 -218 0 -30 33 -141 47 -158 7 -8 13 -24
13 -34 0 -10 6 -26 14 -34 13 -16 39 -215 38 -296 -1 -39 -1 -39 8 -10 5 17
32 52 60 80 39 39 50 56 50 82 0 49 -18 50 -65 3 -35 -34 -43 -39 -49 -25 -10
28 -8 32 39 62 25 16 45 36 45 46 0 24 -17 21 -52 -9 -20 -16 -34 -22 -40 -16
-17 17 1 46 43 70 39 22 40 24 26 46 -9 12 -18 44 -22 69 -8 54 -20 67 -29 34
l-7 -22 -10 25 c-16 38 -7 104 14 108 12 3 17 -3 17 -20 0 -27 48 -134 56
-125 3 3 1 20 -4 39 -6 24 -5 46 5 78 22 67 31 141 22 174 -11 39 8 67 28 40
7 -10 13 -12 13 -5 0 23 48 61 79 61 16 0 32 -4 35 -8 15 -24 -70 -90 -100
-78 -25 9 -27 -22 -5 -57 12 -19 30 -71 41 -116 12 -45 31 -112 44 -149 13
-37 36 -107 51 -157 14 -49 46 -137 70 -195 24 -58 49 -127 56 -155 15 -63 55
-203 80 -276 10 -31 19 -63 19 -73 0 -20 2 -20 44 5 19 11 38 29 41 39 9 28
75 42 75 15 0 -24 -84 -95 -113 -95 -16 0 -47 -31 -47 -48 0 -6 11 -37 25 -68
28 -64 34 -117 11 -108 -8 3 -19 -3 -26 -15 -6 -12 -15 -21 -20 -21 -19 0 -10
29 15 48 24 19 24 21 10 56 -15 36 -28 45 -40 26 -3 -5 -10 -10 -16 -10 -5 0
-9 5 -9 10 0 6 6 10 14 10 20 0 29 16 21 40 -6 18 -17 11 -91 -60 -47 -44 -90
-80 -95 -80 -5 0 -27 -17 -47 -38 -21 -20 -107 -93 -191 -162 -84 -69 -159
-131 -166 -137 -8 -7 -31 -13 -52 -13 l-38 1 58 54 c31 30 57 57 57 60 0 3
-24 5 -52 5 -29 0 -73 5 -98 11 -25 6 -76 12 -115 14 -38 2 -104 10 -145 18
-98 20 -140 26 -225 32 -126 8 -185 20 -185 37 0 6 10 7 28 3 42 -11 112 -15
112 -7 0 5 -33 19 -72 31 -40 13 -98 31 -128 41 -108 35 -138 42 -148 36 -6
-4 -38 3 -71 14 -61 20 -122 28 -69 8 45 -16 33 -30 -19 -22 -27 4 -57 10 -68
14 -21 8 -14 14 30 23 11 2 -5 8 -35 12 -30 5 -49 10 -42 12 25 9 11 22 -41
38 -28 10 -62 24 -75 31 -12 8 -33 19 -47 24 -25 9 -25 9 -25 -49 0 -50 3 -60
22 -70 l23 -11 -22 6 c-19 4 -23 1 -23 -20 0 -14 1 -26 3 -26 1 0 16 4 34 9
36 10 58 -5 47 -33 -4 -12 0 -16 15 -16 13 0 21 6 21 16 0 15 10 16 81 9 61
-5 84 -3 90 6 5 10 21 8 71 -9 34 -11 78 -24 97 -27 19 -4 48 -13 65 -21 29
-13 25 -13 -59 -12 -90 1 -108 -2 -155 -27 -14 -7 -52 -12 -88 -11 -35 1 -65
-2 -68 -6 -3 -4 1 -8 8 -9 7 -1 -3 -5 -22 -10 -31 -7 -78 -1 -126 18 -11 4
-14 -7 -14 -56 0 -50 3 -59 15 -55 8 4 15 11 15 16 0 15 32 37 53 38 30 0 17
-27 -43 -91 -29 -32 -40 -52 -40 -75 0 -30 2 -32 73 -54 39 -12 88 -27 107
-33 l35 -11 -35 -6 c-19 -3 -37 -2 -40 2 -4 5 -124 47 -137 48 -2 0 -3 -9 -3
-20 0 -15 14 -24 68 -40 37 -12 89 -21 117 -21 44 1 53 5 85 40 19 22 54 50
78 62 23 11 45 25 48 30 3 5 15 9 27 9 22 -1 22 -1 2 -15 -11 -8 -63 -56 -116
-107 -52 -51 -132 -126 -177 -167 -45 -41 -79 -77 -75 -81 16 -13 113 -31 125
-24 7 4 36 24 63 45 39 29 62 38 107 42 32 3 60 2 62 -2 3 -4 -11 -17 -32 -27
-20 -11 -37 -27 -37 -36 0 -18 -40 -53 -76 -67 -26 -9 -164 20 -183 39 -25 25
-86 7 -86 -25 0 -19 7 -24 42 -30 58 -10 104 -30 89 -40 -12 -7 -88 1 -117 12
-11 4 -14 -9 -14 -63 0 -38 4 -64 8 -58 40 58 146 114 180 95 16 -9 -22 -41
-125 -107 -50 -31 -63 -44 -63 -64 0 -25 1 -25 72 -23 40 0 125 13 188 28 63
15 151 29 195 32 53 4 89 12 105 24 25 17 30 16 150 -6 69 -13 139 -28 155
-33 17 -5 55 -15 85 -22 54 -12 104 -33 70 -29 -8 1 -23 -1 -33 -6 -9 -4 -62
-2 -117 5 -55 7 -108 9 -117 5 -31 -11 -262 -6 -282 7 -16 9 -34 9 -83 0 -35
-7 -92 -17 -128 -21 -80 -10 -100 -19 -93 -37 3 -9 -7 -15 -36 -20 -40 -6 -41
-8 -41 -45 0 -21 4 -49 10 -63 9 -24 15 -26 64 -26 45 0 54 3 50 15 -5 13 -1
13 36 0 53 -19 426 -22 415 -4 -4 6 2 19 14 30 19 18 23 18 63 5 24 -8 66 -18
93 -22 28 -3 55 -11 62 -16 6 -5 40 -8 75 -6 l63 3 -81 28 c-45 15 -85 27 -90
26 -21 -4 -32 2 -30 17 0 9 -5 19 -11 21 -8 3 -13 -4 -13 -16 0 -18 -4 -20
-27 -15 -51 12 -55 18 -31 42 22 20 26 21 83 7 33 -7 123 -32 200 -54 77 -22
154 -41 172 -41 17 0 35 -5 38 -10 4 -6 59 -10 132 -10 110 0 124 2 113 15
-10 12 -9 15 8 15 11 0 39 -7 62 -15 36 -13 138 -15 673 -15 347 0 628 2 626
5 -3 2 -33 6 -68 9 -40 3 -70 11 -82 22 -13 12 -44 19 -106 23 -77 5 -88 8
-88 25 0 10 -10 22 -23 27 -36 13 -135 13 -176 -1 -26 -8 -61 -10 -105 -5 -71
7 -119 10 -248 13 -69 2 -81 5 -77 17 6 16 50 19 94 6 15 -5 33 -2 46 6 17 11
30 10 79 -2 55 -15 58 -15 71 4 8 11 28 22 44 26 17 4 28 11 24 16 -7 12 49
12 62 0 16 -16 215 -70 233 -63 9 3 28 15 43 26 23 16 32 18 53 8 13 -6 32 -9
40 -6 8 3 28 1 44 -4 43 -15 80 18 78 70 -1 35 -3 37 -70 67 -37 17 -79 31
-91 31 -13 0 -49 11 -80 25 -31 14 -66 25 -77 25 -11 0 -37 9 -57 19 -57 29
-142 59 -192 66 -25 4 -53 11 -62 16 -10 6 -18 5 -20 -2 -2 -7 -11 -7 -28 1
-23 9 -23 10 -2 6 39 -8 24 5 -52 40 -74 34 -99 36 -110 8 -3 -8 -11 -14 -19
-14 -7 0 -23 -18 -35 -39 -21 -37 -35 -51 -131 -130 -22 -19 -41 -41 -42 -50
0 -10 -2 -12 -6 -3 -7 19 -23 14 -23 -7 0 -16 -10 -20 -57 -25 -50 -6 -65 -3
-107 19 -52 26 -81 31 -91 15 -6 -10 -36 -2 -46 12 -3 5 -14 10 -25 12 -104
21 -96 62 16 79 8 1 15 -3 15 -10 0 -25 13 -21 50 13 22 20 47 40 56 45 22 11
69 12 69 0 0 -4 -22 -29 -50 -55 -27 -26 -50 -52 -50 -58 0 -7 18 -9 50 -6 37
4 56 12 74 31 13 14 39 30 58 35 32 8 33 10 36 66 l3 57 32 -3 c23 -2 32 -8
31 -20 -2 -21 5 -22 29 -3 11 7 37 17 59 20 28 5 38 11 34 21 -3 8 5 19 19 27
23 12 19 14 -78 47 -56 19 -126 44 -155 57 -29 13 -59 23 -67 23 -20 0 -64
-50 -58 -66 3 -8 1 -14 -5 -14 -6 0 -12 5 -14 11 -5 16 -30 1 -63 -38 -28 -34
-28 -36 -10 -49 11 -8 38 -20 60 -26 57 -16 66 -28 20 -28 -84 1 -178 40 -128
53 16 4 15 5 -2 6 -11 0 -45 10 -75 22 -30 11 -61 21 -68 23 -20 4 -17 20 7
31 11 5 21 13 21 18 0 5 9 5 20 2 12 -4 27 -1 35 5 9 8 32 9 69 5 49 -6 55 -5
65 14 7 12 20 21 30 21 27 0 46 26 25 34 -24 9 -42 7 -25 -3 9 -6 2 -10 -23
-13 -29 -3 -36 -1 -36 13 0 10 -4 21 -10 24 -6 4 -10 -5 -10 -19 0 -16 -6 -26
-15 -26 -8 0 -15 3 -15 8 0 4 -16 7 -35 8 -37 1 -59 14 -37 21 6 3 10 9 7 14
-3 4 6 11 20 15 26 7 26 7 -17 35 -24 16 -50 29 -58 29 -9 0 -20 4 -25 9 -23
20 -102 31 -136 18 -47 -17 -421 -17 -426 0 -3 7 9 14 29 17 165 23 249 31
279 25 70 -14 123 -20 117 -14 -4 4 -46 22 -95 40 -123 46 -328 138 -315 143
6 2 64 -13 129 -33 65 -20 145 -44 178 -54 103 -32 121 -34 159 -16 19 9 40
13 47 9 9 -5 6 -10 -9 -15 -33 -12 -17 -35 35 -50 43 -11 49 -11 84 9 21 12
40 22 43 22 12 0 5 -28 -9 -40 -8 -7 -15 -16 -15 -21 0 -14 22 -10 42 8 17 15
18 15 18 -9 0 -32 34 -39 115 -25 38 7 61 7 77 -1 23 -11 23 -11 -4 -11 -31
-1 -45 -16 -22 -25 27 -11 61 -6 74 9 14 17 40 20 40 6 0 -6 -4 -13 -10 -16
-5 -3 -10 -13 -10 -21 0 -11 18 -14 85 -14 76 0 108 -10 73 -23 -30 -10 10
-22 90 -27 81 -5 85 -6 52 -16 l-35 -11 30 -12 c31 -13 75 -2 75 19 0 5 9 10
21 10 19 0 19 -1 5 -22 -9 -12 -16 -26 -16 -30 0 -14 77 -28 165 -29 50 0 99
-4 110 -9 18 -8 18 -9 -5 -10 -14 -2 -29 -2 -34 -1 -4 1 -17 -1 -29 -5 -17 -5
-18 -8 -5 -15 9 -5 47 -16 84 -24 63 -14 172 -53 217 -77 25 -13 31 -5 17 22
-10 18 -9 21 1 18 7 -2 17 -19 21 -36 8 -28 17 -36 40 -34 3 1 12 -5 18 -13
19 -23 31 -18 24 10 -9 38 13 30 26 -9 7 -21 19 -36 33 -40 36 -9 50 -7 44 8
-8 20 4 28 21 13 13 -10 14 -9 8 1 -6 10 -3 13 10 10 14 -2 19 -12 18 -36 0
-29 3 -32 35 -38 20 -4 42 -15 49 -26 21 -30 46 -21 108 37 58 55 93 73 113
60 29 -17 -8 -72 -78 -115 l-46 -29 30 -11 c17 -7 53 -17 80 -22 l50 -11 65
63 c35 34 75 66 88 71 34 13 92 11 92 -3 0 -7 -25 -36 -56 -65 -30 -29 -53
-57 -50 -62 4 -5 31 -15 61 -22 30 -7 55 -16 55 -21 0 -4 -2 -8 -5 -8 -17 0
-142 34 -151 42 -14 11 -41 -19 -28 -32 18 -17 119 -40 151 -34 29 5 33 3 33
-14 0 -15 9 -22 30 -27 16 -4 34 -3 41 0 6 4 17 -2 25 -14 8 -12 19 -21 25
-21 15 0 11 34 -16 126 -14 47 -25 91 -25 96 0 6 12 8 28 5 47 -9 177 -49 186
-57 4 -5 -13 -12 -38 -15 -36 -6 -51 -4 -65 9 -22 20 -32 21 -25 1 4 -8 -1
-17 -9 -21 -12 -4 -13 -11 -6 -32 5 -15 15 -56 23 -92 l13 -65 53 -8 c30 -4
67 -14 83 -22 21 -11 63 -15 139 -15 l108 0 0 148 c0 128 -3 153 -20 187 -11
22 -20 45 -20 53 0 18 20 5 30 -22 5 -12 9 137 9 365 l1 387 -25 6 c-14 4 -25
11 -25 16 0 6 11 8 25 4 l25 -6 0 142 c0 135 -1 143 -22 161 l-23 19 23 6 c23
7 24 9 18 83 -12 158 -25 197 -44 129 -11 -39 -15 -31 -35 77 -13 70 -13 84 0
108 13 25 12 33 -5 70 -26 56 -34 89 -19 84 6 -2 19 -29 28 -61 19 -61 34 -87
52 -83 24 4 27 25 27 192 l0 171 -97 47 c-54 26 -87 44 -73 41 75 -17 102 -26
134 -45 l36 -21 0 65 c0 104 -3 108 -111 135 -88 22 -147 38 -244 65 -22 6
-45 17 -50 24 -6 8 -28 16 -50 20 -51 8 -156 55 -134 60 8 2 29 -2 45 -8 16
-7 40 -14 53 -16 13 -2 37 -11 52 -19 33 -17 39 -17 39 -4 0 5 -19 15 -42 21
-50 14 -71 29 -43 29 38 0 344 -89 410 -119 72 -33 97 -40 55 -16 -25 14 -25
14 -2 15 42 0 22 16 -38 29 -33 7 -67 19 -77 26 -17 13 -16 14 10 24 16 6 38
12 50 13 12 0 2 4 -23 7 -25 3 -44 10 -43 14 1 5 32 34 70 66 l68 57 3 63 3
63 -43 -34 c-24 -19 -60 -45 -80 -57 -21 -13 -38 -30 -38 -40 0 -20 -33 -53
-74 -75 -26 -13 -33 -13 -70 1 -23 9 -43 18 -45 19 -6 5 20 34 40 44 18 10 21
-3 5 -28 -18 -30 6 -22 58 19 36 28 51 46 43 51 -14 8 -15 8 48 38 28 13 70
41 94 62 24 21 48 38 52 38 5 0 9 18 9 41 0 35 -3 40 -17 34 -47 -18 -56 3
-13 28 34 21 41 60 13 76 -17 10 -17 10 0 11 13 0 17 9 17 36 0 32 -2 35 -15
24 -12 -10 -19 -10 -27 -2 -9 9 -7 12 7 12 19 1 19 1 2 14 -16 12 -16 14 -1
20 9 3 20 4 25 0 5 -3 9 20 9 50 0 52 -2 56 -23 56 -13 0 -28 5 -34 11 -11 11
-41 12 -238 9 -71 -2 -148 2 -170 8 -22 5 -109 13 -193 17 -84 3 -172 12 -197
19 -24 8 -46 12 -48 10 -9 -9 -96 -21 -104 -14 -4 4 -33 4 -63 0 -78 -12 -177
-11 -230 1 -41 10 -179 12 -465 9 -95 -2 -145 1 -312 16 -71 7 -208 -6 -306
-27 -67 -15 -117 -5 -117 24 0 15 -11 29 -31 41 -26 15 -43 17 -110 11 -64 -6
-84 -4 -104 9 -25 17 -65 22 -65 8 0 -4 -16 -16 -35 -26 -19 -11 -35 -22 -35
-26 0 -4 -14 -10 -30 -14 -31 -6 -110 26 -110 46 0 5 -4 7 -8 4 -4 -2 -14 0
-22 5 -13 8 -13 10 0 19 12 8 11 10 -7 10 -12 0 -23 5 -25 11 -5 14 -78 3 -78
-11 0 -5 -16 -9 -36 -8 -27 1 -41 -4 -54 -22 -11 -14 -20 -19 -24 -12 -8 14
-56 -5 -56 -23 0 -8 -16 -9 -57 -3 -113 16 -150 25 -184 45 -27 16 -47 19 -96
16 -53 -3 -67 0 -95 19 -18 13 -35 25 -38 28 -10 10 -88 11 -94 1z m684 -81
c0 -5 -7 -7 -15 -4 -8 4 -15 8 -15 10 0 2 7 4 15 4 8 0 15 -4 15 -10z m-393
-66 c-3 -3 -12 -4 -19 -1 -8 3 -5 6 6 6 11 1 17 -2 13 -5z m21 -39 c-2 -5 -9
-10 -17 -10 -8 0 -16 -7 -19 -15 -6 -18 -53 -70 -64 -70 -4 0 -8 9 -8 20 0 11
4 20 9 20 4 0 23 16 42 35 31 32 64 44 57 20z m-161 -37 c-3 -8 -6 -5 -6 6 -1
11 2 17 5 13 3 -3 4 -12 1 -19z m1251 10 c-5 -14 -135 -86 -157 -87 -12 -1
-51 -16 -168 -67 -36 -16 -63 -18 -63 -5 0 5 10 11 23 15 18 5 19 8 7 16 -17
11 -5 40 21 49 12 4 12 2 0 -12 -7 -9 -11 -24 -7 -33 8 -21 34 -12 121 40 39
23 93 50 120 60 28 10 54 23 60 27 14 14 47 11 43 -3z m249 -24 c-9 -9 -28 6
-21 18 4 6 10 6 17 -1 6 -6 8 -13 4 -17z m1045 4 c-7 -7 -12 -8 -12 -2 0 6 3
14 7 17 3 4 9 5 12 2 2 -3 -1 -11 -7 -17z m-657 -88 c6 -82 5 -86 -14 -86 -18
0 -19 5 -14 43 3 26 2 43 -4 43 -18 0 -24 -157 -8 -193 l14 -32 -6 35 -6 35
21 -19 c19 -17 22 -17 22 -3 0 30 19 18 24 -15 10 -64 12 -138 4 -140 -4 -2
-4 -27 1 -55 9 -62 2 -68 -23 -17 -25 54 -31 33 -6 -23 12 -26 23 -53 24 -60
1 -7 5 -16 9 -19 4 -4 7 -15 7 -23 0 -9 8 -32 19 -51 26 -49 101 -285 101
-318 0 -30 25 -118 38 -136 5 -6 17 -33 27 -60 43 -116 37 57 -11 337 -4 26
-1 44 10 62 21 32 20 35 -9 35 -29 0 -33 21 -9 44 14 14 14 18 0 31 -12 12
-14 31 -9 88 3 39 10 90 15 112 19 78 20 95 9 95 -22 0 -11 37 15 48 20 10 31
9 52 -3 15 -8 21 -14 14 -15 -19 0 -13 -1110 7 -1134 11 -13 13 -37 8 -105 -3
-49 -2 -130 3 -180 5 -49 6 -99 3 -109 -6 -23 -44 -43 -70 -36 -15 4 -21 -4
-31 -38 -10 -33 -27 -55 -72 -93 -33 -27 -60 -52 -60 -57 0 -15 -185 -189
-240 -225 -63 -42 -152 -115 -147 -120 2 -2 27 1 56 7 43 8 54 7 71 -7 14 -13
17 -20 8 -30 -8 -10 -7 -13 5 -13 9 0 31 -6 49 -14 18 -8 48 -20 65 -26 39
-15 35 -25 -10 -34 -37 -7 -104 4 -207 35 -36 10 -85 24 -109 30 -40 9 -42 11
-25 24 11 9 14 14 7 15 -33 0 6 56 62 89 16 10 6 11 -55 8 -41 -2 -67 -2 -57
1 9 2 15 8 12 13 -4 5 3 9 15 9 13 0 19 4 14 12 -5 8 2 9 25 5 29 -6 39 -1 89
44 40 34 63 48 76 45 14 -4 40 13 90 58 39 35 81 66 94 70 12 4 22 13 22 21 0
7 16 23 35 35 24 15 35 29 35 46 0 32 63 100 106 114 35 12 43 24 22 34 -8 3
1 16 25 36 32 28 37 38 37 75 0 43 0 43 -62 74 l-63 30 43 -6 43 -6 -16 41
c-9 22 -15 51 -13 64 3 19 10 12 36 -40 18 -34 36 -79 41 -100 8 -33 9 -34 10
-9 1 16 -3 37 -9 47 -18 34 -26 140 -16 217 6 41 5 43 -29 58 -20 8 -43 16
-53 17 -17 3 -32 17 -32 29 0 4 14 9 30 13 29 5 30 7 30 68 0 75 -10 112 -68
241 -12 26 -22 56 -22 67 0 10 -4 29 -9 42 -5 13 -12 34 -15 48 -3 14 -12 34
-20 45 -13 17 -17 18 -25 5 -15 -22 -27 -2 -13 20 7 11 12 28 12 37 0 30 -46
208 -61 234 -13 23 -14 21 -22 -41 -4 -36 -9 -100 -10 -142 -1 -81 -17 -99
-17 -20 0 26 -9 93 -20 150 -11 56 -20 129 -20 162 0 40 -7 72 -20 98 -21 40
-18 81 4 63 16 -13 50 14 43 34 -4 8 -15 15 -26 15 -18 0 -19 2 -5 63 21 92
40 126 64 120 13 -3 20 0 20 8 0 8 3 9 9 4 5 -6 12 -48 16 -95z m280 68 c7
-44 10 -118 7 -207 -2 -59 -5 -71 -15 -63 -7 6 -22 9 -33 6 -12 -3 -26 1 -34
11 -13 15 -11 20 15 41 29 23 30 26 31 116 0 51 1 101 2 111 3 29 21 19 27
-15z m-231 -93 c14 -55 28 -122 30 -150 2 -27 13 -75 24 -105 20 -53 42 -156
63 -290 6 -36 16 -92 23 -125 12 -58 10 -114 -4 -98 -7 8 -39 133 -66 253 -7
36 -25 106 -39 155 -29 107 -57 289 -61 400 -4 93 -3 92 30 -40z m945 99 c-8
-9 -32 -25 -54 -36 -22 -10 -62 -32 -90 -48 -27 -16 -63 -30 -79 -30 l-29 0
39 27 c58 40 185 103 207 103 17 0 18 -2 6 -16z m-382 -16 c7 17 23 15 23 -3
0 -8 -4 -15 -10 -15 -5 0 -10 -9 -10 -21 0 -28 -58 -85 -72 -71 -7 7 -4 23 11
54 11 25 21 53 21 64 1 19 1 18 16 -1 11 -14 18 -16 21 -7z m583 7 c0 -8 -4
-15 -9 -15 -5 0 -19 -16 -31 -36 -30 -48 -36 -36 -10 20 20 44 50 63 50 31z
m252 -11 c15 -8 28 -16 28 -19 0 -2 -51 -3 -113 -2 -86 2 -118 7 -136 19 -24
17 -24 17 25 21 73 6 164 -2 196 -19z m-1115 -6 c-3 -8 -6 -5 -6 6 -1 11 2 17
5 13 3 -3 4 -12 1 -19z m1194 12 c5 0 9 -4 9 -9 0 -4 -11 -6 -25 -3 -14 2 -25
9 -25 14 0 6 7 7 16 4 9 -3 20 -6 25 -6z m-2521 -5 c0 -14 -38 -46 -44 -37 -3
6 1 18 10 26 15 16 34 21 34 11z m617 -1 c-3 -3 -12 -4 -19 -1 -8 3 -5 6 6 6
11 1 17 -2 13 -5z m169 -49 c-9 -14 -24 -25 -33 -25 -13 0 -10 7 12 30 33 35
45 32 21 -5z m-1344 -2 c10 -9 18 -22 18 -30 0 -16 17 -17 23 0 14 34 3 -55
-12 -98 -14 -38 -26 -54 -53 -68 -21 -11 -47 -39 -64 -68 -23 -39 -33 -47 -49
-42 -11 4 -28 6 -37 5 -21 -1 -23 9 -6 26 9 9 8 12 -5 12 -9 0 -17 7 -17 16 0
8 -4 12 -10 9 -5 -3 -10 1 -10 11 0 11 6 15 20 11 11 -3 20 0 20 6 0 7 12 26
26 42 14 17 49 65 77 108 28 42 53 77 56 77 2 0 13 -7 23 -17z m958 -14 c0 -5
-10 -9 -21 -9 -18 0 -19 2 -9 15 12 15 30 12 30 -6z m1013 -36 c7 -55 -6 -186
-16 -163 -29 68 -47 131 -47 160 l1 35 30 -55 c16 -30 28 -44 24 -30 -14 67
-17 100 -8 100 6 0 13 -21 16 -47z m-2523 7 c0 -5 -7 -10 -16 -10 -8 0 -12 5
-9 10 3 6 10 10 16 10 5 0 9 -4 9 -10z m3868 -31 c9 -35 8 -40 -6 -37 -12 2
-18 15 -20 41 -4 49 13 47 26 -4z m-1033 21 c-3 -5 -12 -10 -18 -10 -7 0 -6 4
3 10 19 12 23 12 15 0z m402 -92 c8 -39 12 -72 9 -75 -11 -12 -46 91 -46 135
1 39 3 44 11 28 6 -10 18 -50 26 -88z m-1412 82 c8 -13 -20 -66 -39 -73 -32
-12 -35 19 -5 57 22 28 34 32 44 16z m-1711 -16 c3 -8 2 -12 -4 -9 -6 3 -10
10 -10 16 0 14 7 11 14 -7z m1172 -9 c-33 -17 -46 -19 -46 -6 0 10 22 18 55
20 15 1 13 -3 -9 -14z m-938 -14 c11 -7 11 -9 -1 -14 -16 -6 -27 0 -27 15 0
10 11 10 28 -1z m621 -5 c10 -12 -3 -23 -71 -63 -46 -27 -99 -55 -118 -63 -19
-7 -42 -18 -50 -25 -16 -12 -67 -35 -77 -35 -3 0 0 7 7 15 7 8 18 15 24 15 10
0 93 52 221 138 27 17 50 32 51 32 1 0 7 -6 13 -14z m1311 -55 c-17 -34 -80
-25 -80 11 0 10 3 17 8 15 4 -3 23 3 42 13 34 18 35 18 38 0 2 -11 -2 -28 -8
-39z m660 50 c0 -10 -61 -34 -68 -26 -3 2 10 11 29 19 41 18 39 18 39 7z
m-1625 -32 c22 -10 34 -18 27 -18 -21 -1 -126 30 -137 41 -15 14 62 -2 110
-23z m603 -8 c4 -42 -8 -56 -50 -56 -47 0 -51 31 -7 67 41 34 53 32 57 -11z
m-528 19 c0 -13 -11 -13 -30 0 -12 8 -11 10 8 10 12 0 22 -4 22 -10z m568 -78
c16 -70 16 -71 -9 -65 -18 5 -19 7 -6 15 14 7 14 13 1 49 -16 46 -19 78 -6 64
5 -6 14 -34 20 -63z m-1602 32 c-21 -20 -28 -17 -14 5 7 11 16 17 20 15 5 -3
2 -12 -6 -20z m1394 21 c0 -25 -49 -90 -85 -113 -6 -4 -26 -28 -45 -54 -18
-27 -39 -48 -47 -48 -17 0 -17 4 8 51 13 26 31 44 49 50 17 7 37 25 48 47 11
21 26 36 35 36 9 -1 16 1 15 5 -2 18 3 31 12 31 6 0 10 -2 10 -5z m-305 -25
c34 -17 37 -19 15 -19 -14 0 -43 8 -65 18 -35 17 -37 19 -15 20 14 0 43 -8 65
-19z m2365 10 c0 -5 -5 -10 -11 -10 -5 0 -7 5 -4 10 3 6 8 10 11 10 2 0 4 -4
4 -10z m-2010 -10 c0 -5 -5 -10 -11 -10 -5 0 -7 5 -4 10 3 6 8 10 11 10 2 0 4
-4 4 -10z m646 -28 c-6 -9 -46 -5 -46 5 0 2 6 10 13 18 10 11 14 11 26 0 7 -7
11 -18 7 -23z m1423 -8 c-10 -12 -9 -13 7 -8 16 6 16 4 -4 -18 -28 -31 -122
-83 -122 -68 0 12 59 70 71 70 4 0 17 17 30 38 18 29 24 33 27 19 2 -10 -2
-25 -9 -33z m-2516 20 c9 -10 -19 -34 -40 -34 -15 0 -16 2 -3 10 8 5 11 10 7
10 -5 0 -5 5 -2 10 7 11 28 13 38 4z m-1071 -28 c6 -28 -7 -36 -45 -29 -17 3
-27 12 -27 22 0 24 9 31 41 31 20 0 28 -6 31 -24z m408 -1 c0 -8 -4 -15 -10
-15 -5 0 -10 7 -10 15 0 8 5 15 10 15 6 0 10 -7 10 -15z m1145 -7 c7 -8 4 -9
-8 -4 -10 3 -27 6 -38 6 -10 0 -19 5 -19 11 0 13 50 3 65 -13z m-1115 2 c0 -5
-4 -10 -10 -10 -5 0 -10 5 -10 10 0 6 5 10 10 10 6 0 10 -4 10 -10z m1075 -21
c22 -35 -40 -94 -72 -68 -12 10 -9 17 19 46 34 35 43 39 53 22z m769 -15 c47
-12 70 -24 49 -24 -18 0 -143 40 -143 46 0 3 10 2 23 -2 12 -4 44 -13 71 -20z
m176 5 c25 -1 25 -1 -3 -11 -15 -5 -45 -7 -65 -3 -32 6 -34 9 -17 16 11 4 29
6 40 4 11 -3 31 -5 45 -6z m1000 2 c0 -6 -8 -16 -17 -23 -10 -7 -24 -21 -32
-31 -12 -16 -12 -17 5 -11 27 8 -28 -38 -77 -65 -37 -21 -39 -21 -39 -4 0 11
-5 24 -12 31 -8 8 -5 10 14 7 28 -5 63 17 112 72 30 33 46 41 46 24z m-2761
-23 c-19 -36 -52 -78 -61 -78 -17 0 -6 31 23 65 35 39 56 47 38 13z m-381 -14
c2 -14 -5 -24 -25 -33 -15 -7 -59 -36 -98 -65 -79 -59 -145 -101 -145 -92 0 4
-18 -6 -40 -20 -22 -15 -44 -24 -47 -20 -4 4 -3 10 3 14 5 4 11 20 12 37 4 56
136 160 169 133 11 -8 20 -5 41 15 59 56 124 72 130 31z m2392 17 c0 -5 -4
-21 -10 -35 -8 -21 -16 -26 -44 -26 -19 0 -41 3 -50 6 -19 7 -21 24 -3 24 7 0
30 9 52 20 44 22 55 24 55 11z m-2946 -25 c6 -8 29 -17 51 -21 33 -6 37 -9 20
-15 -31 -13 -44 -11 -64 9 -11 11 -32 21 -47 23 -15 2 -30 9 -32 17 -6 18 56
7 72 -13z m256 14 c12 -7 9 -13 -14 -35 -32 -30 -50 -28 -54 5 -5 34 34 52 68
30z m1534 -50 c5 -23 4 -30 -2 -20 -6 8 -13 31 -16 50 -5 23 -4 30 2 20 6 -8
13 -31 16 -50z m691 50 c3 -6 -1 -7 -9 -4 -18 7 -21 14 -7 14 6 0 13 -4 16
-10z m-565 -30 c0 -21 -10 -38 -37 -62 -84 -75 -86 -81 -33 -93 16 -4 32 -11
35 -16 8 -12 -47 -11 -81 1 -22 9 -31 7 -49 -10 -21 -20 -55 -26 -69 -13 -4 4
23 35 59 69 36 35 65 68 65 73 0 17 72 81 92 81 13 0 18 -7 18 -30z m328 -16
c4 -50 -7 -126 -17 -119 -13 8 -23 90 -15 130 8 46 28 40 32 -11z m502 11 c36
-12 85 -26 108 -30 27 -4 40 -11 35 -16 -6 -6 -25 -4 -49 5 -22 7 -76 22 -120
31 -43 10 -92 24 -109 32 -29 13 -29 14 20 8 28 -4 79 -17 115 -30z m836 19
c-3 -9 -6 -20 -6 -25 0 -5 -9 -9 -20 -9 -25 0 -25 8 -2 31 21 22 36 24 28 3z
m-3428 -12 c2 -7 -3 -12 -12 -12 -9 0 -16 7 -16 16 0 17 22 14 28 -4z m2970
-15 c3 -27 10 -31 44 -28 9 1 22 -7 28 -18 11 -22 54 -29 65 -11 13 21 31 9
30 -20 0 -33 -9 -36 -65 -20 -19 6 -51 13 -70 16 -45 8 -50 11 -43 29 6 18 -1
19 -27 3 -15 -10 -22 -10 -31 -1 -10 10 -7 18 14 37 15 14 27 30 27 36 0 24
25 2 28 -23z m-2358 4 c0 -11 -20 -37 -46 -58 -25 -21 -73 -62 -106 -91 -55
-47 -166 -122 -182 -122 -19 0 1 33 52 82 53 52 258 207 275 208 4 0 7 -9 7
-19z m890 10 c0 -16 -30 -33 -46 -27 -13 5 -14 9 -4 21 13 16 50 21 50 6z
m770 -76 c0 -11 7 -40 16 -65 9 -25 24 -79 34 -120 10 -41 39 -119 64 -172 25
-53 48 -114 51 -135 4 -21 13 -63 22 -94 8 -30 13 -71 11 -90 -3 -32 -5 -30
-27 36 -13 39 -27 75 -30 80 -7 11 -68 200 -105 325 -13 47 -31 108 -39 135
-15 51 -21 80 -31 150 l-6 40 20 -35 c10 -19 19 -44 20 -55z m144 76 c3 -5 -1
-12 -10 -15 -27 -11 -37 -7 -24 9 14 17 26 19 34 6z m461 0 c3 -5 1 -12 -4
-16 -6 -3 -9 -11 -7 -18 1 -7 1 -9 -1 -4 -8 14 -25 7 -19 -8 7 -18 -8 -20 -22
-2 -17 20 -15 29 10 42 29 16 35 17 43 6z m-1086 -53 c0 -28 -2 -30 -9 -13
-12 28 -12 45 0 45 6 0 10 -15 9 -32z m1011 12 c0 -5 -4 -10 -10 -10 -5 0 -10
-4 -10 -10 0 -5 8 -7 18 -3 15 6 14 3 -3 -16 -17 -19 -21 -20 -23 -7 -2 9 -11
16 -20 17 -10 0 -12 3 -5 5 7 3 9 12 6 20 -4 10 2 14 21 14 14 0 26 -4 26 -10z
m-2866 -8 c3 -4 -10 -24 -27 -44 -18 -19 -47 -52 -66 -74 -31 -36 -34 -37 -46
-20 -12 16 -8 26 33 82 37 50 53 63 74 64 15 0 29 -4 32 -8z m1595 -8 c2 -2 2
-7 -2 -10 -10 -10 -77 6 -77 18 0 9 68 3 79 -8z m-894 -68 c-27 -46 -71 -85
-59 -51 4 8 11 15 17 15 6 0 7 3 4 6 -7 7 29 63 47 76 20 14 17 -1 -9 -46z
m2024 45 c21 -13 -3 -22 -56 -21 -73 3 -108 10 -92 21 18 11 130 11 148 0z
m223 -4 c7 -7 23 -12 35 -11 13 1 27 -4 32 -10 8 -9 -7 -10 -59 -3 -68 10 -88
21 -52 30 28 8 30 7 44 -6z m-1512 -23 c0 -20 -28 -43 -53 -44 -14 0 -13 5 10
30 30 34 43 38 43 14z m1685 -19 c39 -9 85 -18 103 -22 22 -4 32 -11 32 -24 0
-11 7 -19 15 -19 8 0 15 5 15 11 0 13 25 8 170 -32 188 -52 186 -51 158 -62
-41 -17 -75 -11 -283 50 -27 8 -59 18 -70 23 -69 27 -165 61 -192 66 -18 4
-30 10 -27 15 6 11 -4 12 79 -6z m-1655 -11 c0 -8 -4 -12 -10 -9 -5 3 -10 10
-10 16 0 5 5 9 10 9 6 0 10 -7 10 -16z m1320 -3 c0 -14 -23 -29 -55 -36 l-30
-7 30 26 c30 26 55 33 55 17z m566 -6 c-16 -16 -36 -20 -36 -7 0 14 12 22 32
22 17 0 18 -2 4 -15z m434 0 c0 -20 -30 -33 -65 -28 -42 6 -42 9 7 26 55 20
58 20 58 2z m-928 -46 c-37 -33 -51 -37 -48 -12 4 24 58 65 71 52 7 -7 0 -20
-23 -40z m172 30 c-3 -5 -10 -7 -15 -3 -5 3 -26 -9 -46 -27 -23 -19 -39 -27
-41 -20 -7 20 6 39 35 53 29 15 77 12 67 -3z m-1206 -14 c-3 -3 -9 2 -12 12
-6 14 -5 15 5 6 7 -7 10 -15 7 -18z m1622 4 c0 -15 -4 -19 -16 -15 -9 3 -21 6
-27 6 -13 1 22 30 35 30 4 0 8 -9 8 -21z m-2035 -9 c3 -5 2 -10 -4 -10 -5 0
-13 5 -16 10 -3 6 -2 10 4 10 5 0 13 -4 16 -10z m653 -15 c-3 -3 -9 2 -12 12
-6 14 -5 15 5 6 7 -7 10 -15 7 -18z m-1524 3 c-23 -37 -203 -275 -217 -287
-74 -60 51 131 147 225 12 11 31 32 43 47 23 28 40 37 27 15z m1176 -19 c0
-19 -52 -73 -93 -95 -16 -9 -24 -9 -35 3 -13 12 -11 18 14 44 15 16 33 29 40
29 6 0 22 11 35 24 26 27 39 25 39 -5z m81 -10 l44 -20 -37 6 -38 6 0 -48 -1
-48 -14 34 c-17 37 -20 91 -6 91 5 0 28 -9 52 -21z m-1195 -22 c-3 -13 -38
-55 -77 -93 -39 -38 -84 -82 -100 -97 -45 -44 -35 -18 27 69 67 95 102 133
129 144 25 10 29 6 21 -23z m1471 11 c-3 -8 -6 -5 -6 6 -1 11 2 17 5 13 3 -3
4 -12 1 -19z m-2037 8 c0 -2 -7 -7 -16 -10 -8 -3 -12 -2 -9 4 6 10 25 14 25 6z
m2750 -5 c0 -16 -100 -89 -131 -96 -59 -13 -52 11 17 58 62 43 114 60 114 38z
m227 3 c-3 -3 -12 -4 -19 -1 -8 3 -5 6 6 6 11 1 17 -2 13 -5z m-1137 -40 c0
-9 -66 -63 -77 -64 -35 -1 -17 66 19 72 24 4 58 -1 58 -8z m993 -35 c-4 -4
-27 -11 -50 -15 -51 -8 -58 9 -10 23 35 10 73 5 60 -8z m142 6 l30 -7 -40 -15
c-68 -25 -82 -26 -89 -7 -3 9 -5 18 -4 18 18 11 55 23 63 20 6 -1 24 -5 40 -9z
m126 -2 c13 -15 11 -16 -13 -11 -16 3 -28 1 -28 -3 0 -5 -4 -9 -10 -9 -5 0
-10 9 -10 20 0 25 41 28 61 3z m109 -23 c-36 -12 -60 -12 -60 0 0 6 19 10 43
9 36 -1 38 -2 17 -9z m-1550 -30 c13 -8 13 -10 -2 -10 -9 0 -20 5 -23 10 -8
13 5 13 25 0z m184 -37 c-8 -40 -9 -113 -4 -307 l4 -119 -30 -23 c-37 -30 -44
-30 -44 1 0 15 8 29 22 36 18 10 19 13 6 20 -10 6 -14 17 -11 29 4 14 0 20
-11 20 -18 0 -40 46 -32 67 7 17 46 17 47 1 1 -7 5 3 9 22 5 21 5 52 -2 78
-12 50 -6 158 11 190 6 12 19 22 28 22 13 0 14 -6 7 -37z m-1689 -39 c-54 -71
-100 -98 -54 -32 35 51 73 90 77 78 2 -6 -8 -26 -23 -46z m1614 -39 l0 -20 -8
20 c-5 11 -11 38 -14 60 l-6 40 14 -40 c7 -22 14 -49 14 -60z m1071 79 c32
-13 39 -20 35 -35 -6 -17 -4 -17 26 -2 17 9 50 18 73 20 23 2 61 6 86 8 25 3
82 6 128 8 66 2 82 0 82 -11 0 -12 12 -13 62 -8 34 4 89 3 122 -3 198 -33 247
-42 282 -54 37 -13 34 -14 -76 -19 -63 -3 -167 -1 -230 3 -63 5 -146 7 -185 6
-117 -3 -165 -1 -298 11 -70 7 -190 12 -265 13 -142 1 -183 7 -189 26 -6 17
72 33 179 36 36 1 70 5 74 10 12 12 51 8 94 -9z m-50 -94 c0 -12 -8 -12 -35 0
-18 8 -17 9 8 9 15 1 27 -3 27 -9z m116 -8 c-10 -2 -22 0 -28 6 -6 6 0 7 19 4
21 -5 23 -7 9 -10z m-2713 2 c12 -4 13 -12 7 -35 -11 -36 -10 -32 -10 -73 0
-51 -24 -70 -77 -62 -24 3 -54 11 -66 18 -21 11 -21 12 12 20 22 6 37 6 44 -1
29 -29 57 7 57 73 0 62 5 71 33 60z m2431 -14 c5 5 30 10 56 10 42 0 82 -10
248 -57 48 -13 65 -15 70 -6 12 20 82 -5 82 -29 0 -11 -4 -16 -10 -13 -5 3
-10 3 -10 0 0 -3 19 -14 43 -25 l42 -19 -50 0 c-33 -1 -65 6 -90 20 -60 30
-235 86 -296 93 l-54 7 24 -21 c22 -19 23 -20 2 -20 -31 0 -133 48 -126 59 4
7 15 7 32 0 18 -7 30 -6 37 1z m-913 -21 c11 -21 10 -22 -31 -15 -62 10 -71
20 -25 27 22 3 41 7 42 8 1 0 7 -9 14 -20z m649 -5 c0 -8 -4 -14 -9 -14 -6 0
-9 9 -8 19 1 22 17 18 17 -5z m-640 -44 c0 -5 -7 -10 -15 -10 -8 0 -15 5 -15
10 0 6 7 10 15 10 8 0 15 -4 15 -10z m909 1 c11 -7 10 -13 -4 -35 -22 -33 -51
-30 -47 4 4 34 25 47 51 31z m-67 -125 c20 -82 21 -97 8 -76 -7 10 -10 11 -10
2 0 -16 67 -190 84 -217 7 -11 23 -51 35 -90 12 -38 25 -76 28 -84 4 -11 -3
-13 -36 -8 -22 3 -44 1 -47 -4 -3 -5 3 -9 12 -9 10 0 15 -2 12 -5 -9 -9 -58 6
-52 16 6 10 -54 75 -61 67 -6 -6 30 -112 71 -213 58 -139 57 -135 29 -135 -27
0 -211 88 -202 96 2 3 40 -4 83 -15 44 -10 81 -17 83 -15 4 4 -20 83 -49 159
-10 28 -22 63 -25 78 -4 20 -10 27 -20 23 -11 -4 -15 2 -15 24 0 17 5 30 10
30 6 0 43 -11 82 -25 39 -14 73 -23 75 -21 11 10 -13 35 -39 40 -17 3 -67 24
-112 45 -45 21 -98 44 -118 51 -21 6 -41 16 -44 22 -10 15 87 0 106 -17 15
-13 131 -37 139 -29 3 3 -1 24 -8 47 -18 62 -31 123 -40 202 -5 39 -14 88 -20
110 -16 59 -13 75 7 46 9 -14 25 -57 34 -95z m628 88 c0 -8 -4 -12 -10 -9 -5
3 -10 10 -10 16 0 5 5 9 10 9 6 0 10 -7 10 -16z m375 -11 c4 -16 15 -48 27
-73 24 -54 98 -274 98 -294 0 -11 -6 -11 -34 3 -31 14 -33 17 -18 29 8 6 13
13 9 13 -4 1 -11 3 -17 4 -5 1 -14 3 -20 4 -12 1 -9 43 4 52 10 8 -43 180 -61
195 -15 13 -18 94 -3 94 5 0 12 -12 15 -27z m-1795 7 c0 -5 -11 -10 -25 -10
-14 0 -25 5 -25 10 0 6 11 10 25 10 14 0 25 -4 25 -10z m-1835 -20 c3 -5 -1
-10 -10 -10 -9 0 -13 5 -10 10 3 6 8 10 10 10 2 0 7 -4 10 -10z m3064 -59 c11
-27 21 -70 21 -94 0 -47 11 -63 48 -69 l22 -3 -22 -25 c-13 -14 -31 -39 -40
-55 -22 -39 -43 -39 -42 0 1 17 3 37 5 45 3 10 -12 20 -46 31 -67 23 -88 23
-45 -1 31 -16 33 -19 16 -26 -22 -9 -167 36 -211 66 -25 17 -27 20 -10 20 11
0 51 -8 88 -17 58 -15 69 -16 77 -4 7 12 17 13 65 2 31 -7 59 -11 62 -8 2 3
-3 33 -11 67 -18 68 -21 120 -7 120 5 0 18 -22 30 -49z m-1299 19 c0 -5 -2
-10 -4 -10 -3 0 -8 5 -11 10 -3 6 -1 10 4 10 6 0 11 -4 11 -10z m-1635 -66
c-11 -8 -31 -18 -45 -21 -14 -3 -35 -17 -47 -30 -12 -12 -30 -23 -39 -23 -9 0
-32 -9 -50 -21 -19 -11 -34 -16 -34 -11 0 14 21 29 51 37 14 3 32 15 40 27 8
11 19 26 24 34 10 14 104 35 115 26 3 -2 -4 -10 -15 -18z m3685 6 c0 -27 -27
-80 -41 -80 -8 0 -8 4 -2 13 6 6 13 29 17 50 7 39 26 51 26 17z m-1803 -62
c-3 -8 -6 -5 -6 6 -1 11 2 17 5 13 3 -3 4 -12 1 -19z m541 -34 c1 -14 -2 -33
-8 -42 -7 -13 -9 -7 -10 26 0 45 14 59 18 16z m-108 -33 c0 -24 -10 -30 -34
-22 -17 7 -17 8 -2 24 23 22 36 21 36 -2z m-540 -66 c11 -53 22 -67 35 -44 4
6 13 8 21 5 9 -4 18 4 24 19 11 28 28 33 36 11 8 -21 -15 -59 -32 -52 -10 4
-16 -3 -20 -24 -4 -20 -13 -30 -28 -32 -11 -2 -21 -10 -21 -18 0 -9 7 -14 18
-12 9 2 17 -2 17 -8 0 -5 -7 -10 -15 -10 -10 0 -16 -16 -21 -50 -4 -28 -10
-53 -15 -56 -9 -5 -14 21 -29 166 -7 57 -14 108 -16 111 -2 4 3 9 11 13 8 3
15 12 15 21 0 31 9 13 20 -40z m189 -4 c-15 -5 -22 6 -14 19 6 9 10 9 16 -1 5
-8 4 -15 -2 -18z m-22 -33 c-3 -8 -6 -5 -6 6 -1 11 2 17 5 13 3 -3 4 -12 1
-19z m-17 -20 c0 -19 -2 -20 -10 -8 -13 19 -13 30 0 30 6 0 10 -10 10 -22z
m-27 -89 c-7 -24 -7 -24 -14 5 -9 33 -1 56 12 34 4 -8 5 -25 2 -39z m34 9 c-3
-7 -5 -2 -5 12 0 14 2 19 5 13 2 -7 2 -19 0 -25z m1596 -65 c-10 -15 -25 -29
-32 -31 -19 -6 -3 90 18 106 14 11 17 9 25 -18 7 -25 5 -36 -11 -57z m-1574
-7 c1 -31 -10 -11 -15 26 -3 26 -2 29 5 13 5 -11 10 -29 10 -39z m904 -11 c-3
-13 -48 -18 -90 -10 -57 10 -37 26 30 23 34 -2 61 -7 60 -13z m-980 -36 c-5
-25 -2 -31 16 -36 29 -7 27 -23 -4 -21 -14 1 -25 5 -26 8 -10 71 -9 89 5 84
11 -4 13 -14 9 -35z m527 16 c0 -8 -9 -15 -20 -15 -20 0 -26 11 -13 23 12 13
33 7 33 -8z m291 -5 c5 0 9 -4 9 -10 0 -16 -26 -12 -41 7 -12 15 -12 16 4 10
10 -4 23 -7 28 -7z m923 -93 c14 -37 26 -75 26 -85 0 -9 11 -38 24 -64 35 -68
19 -72 -95 -22 -31 13 -63 22 -71 19 -17 -7 -85 52 -74 63 4 4 40 7 80 7 l73
0 -8 35 c-5 19 -9 60 -9 90 0 46 2 52 14 40 7 -8 25 -45 40 -83z m-1647 41
c-3 -8 -6 -5 -6 6 -1 11 2 17 5 13 3 -3 4 -12 1 -19z m-146 -81 c-8 -8 -11 2
-11 34 0 59 14 73 18 19 2 -24 -2 -48 -7 -53z m514 83 c3 -5 -1 -10 -9 -10 -8
0 -18 5 -21 10 -3 6 1 10 9 10 8 0 18 -4 21 -10z m230 0 c3 -5 -3 -10 -14 -10
-12 0 -21 5 -21 10 0 6 6 10 14 10 8 0 18 -4 21 -10z m-571 -106 c14 -76 13
-95 0 -81 -14 13 -31 103 -27 135 3 18 7 31 9 29 3 -2 11 -40 18 -83z m414 46
c-6 -20 -19 -32 -36 -37 -15 -3 -30 -11 -33 -16 -4 -5 -15 -7 -25 -2 -18 7
-18 7 0 18 11 7 36 26 55 44 42 37 54 34 39 -7z m-538 26 c0 -3 -4 -8 -10 -11
-5 -3 -10 -1 -10 4 0 6 5 11 10 11 6 0 10 -2 10 -4z m-1900 -13 c0 -14 -34
-43 -50 -43 -26 0 -31 12 -13 32 15 17 63 26 63 11z m2517 -53 c-1 -11 -7 -20
-14 -20 -16 0 -17 12 -1 28 16 16 17 15 15 -8z m-628 -150 c-7 -22 -16 -40
-21 -40 -12 0 -10 68 3 92 19 36 32 -3 18 -52z m131 40 c18 0 47 -27 38 -35
-3 -3 -24 2 -48 10 -54 19 -74 19 -66 0 3 -8 8 -38 10 -67 5 -43 4 -47 -3 -19
-5 18 -17 50 -26 72 -10 21 -15 45 -12 53 5 14 11 14 48 1 23 -8 49 -15 59
-15z m867 -72 c77 -30 103 -45 98 -56 -4 -11 0 -13 18 -8 26 6 214 -51 241
-73 8 -7 33 -11 58 -9 l43 3 5 45 5 45 26 -45 c14 -25 29 -58 33 -75 9 -35 21
-45 57 -45 23 0 26 3 21 26 -3 19 -1 25 7 20 6 -4 9 -12 6 -17 -12 -18 70 -75
147 -102 43 -16 78 -33 78 -38 0 -12 -40 -2 -100 23 -37 16 -69 19 -185 20
-77 0 -149 3 -160 8 -14 6 -4 9 38 9 31 1 57 6 57 11 0 6 -6 10 -13 10 -8 0
-58 18 -113 41 -54 22 -119 47 -143 56 -24 8 -61 26 -80 39 -46 30 -124 54
-179 54 -40 0 -103 20 -179 57 -56 27 -39 40 56 42 41 1 77 -9 158 -41z m550
-5 c-9 -55 -27 -66 -27 -17 0 41 5 54 23 54 5 0 7 -16 4 -37z m-2545 1 c15 -8
34 -14 43 -14 8 0 15 -4 15 -10 0 -17 -24 -11 -91 20 -51 24 -57 29 -29 24 19
-4 47 -13 62 -20z m-1047 -24 c-3 -5 -12 -7 -20 -3 -21 7 -19 13 6 13 11 0 18
-4 14 -10z m2781 -9 c16 -5 42 -12 58 -16 61 -13 6 -27 -116 -30 l-123 -2 -3
-27 c-2 -15 2 -34 9 -42 6 -8 13 -30 15 -50 3 -30 0 -34 -14 -30 -13 4 -35
-13 -78 -62 -34 -37 -77 -76 -97 -87 -20 -10 -38 -28 -41 -39 -3 -12 -24 -30
-47 -40 -22 -11 -51 -33 -64 -48 -25 -29 -40 -35 -50 -19 -11 19 19 58 92 116
139 111 242 210 254 243 9 25 -1 45 -16 32 -9 -7 -16 -6 -25 5 -10 12 -7 16
16 26 l29 11 -23 12 c-21 11 -22 14 -8 25 13 11 59 18 187 30 9 0 29 -3 45 -8z
m1071 -8 c5 -13 -32 -27 -47 -18 -8 5 -7 11 1 21 14 17 40 15 46 -3z m-206
-27 c19 -24 20 -24 60 -8 39 15 41 15 62 -7 19 -19 20 -23 7 -32 -8 -5 -36 -7
-62 -4 -43 5 -47 4 -50 -17 -4 -21 -6 -19 -20 13 -35 79 -34 101 3 55z m-3546
-6 c13 -5 14 -9 5 -9 -8 0 -24 4 -35 9 -13 5 -14 9 -5 9 8 0 24 -4 35 -9z
m2203 -32 c6 -23 8 -46 5 -52 -7 -11 -31 47 -32 77 -2 33 17 17 27 -25z m87
13 c10 -33 -5 -69 -32 -76 -37 -9 -39 -1 -12 50 26 50 35 54 44 26z m-445 -31
c0 -5 -4 -10 -10 -10 -5 0 -10 5 -10 10 0 6 5 10 10 10 6 0 10 -4 10 -10z
m-1570 -10 c8 -5 11 -12 8 -16 -11 -10 -60 5 -53 16 8 12 26 12 45 0z m1848
-102 c23 -4 50 -12 59 -18 15 -9 10 -10 -22 -7 -22 3 -47 6 -55 8 -9 3 -14 -2
-11 -11 2 -8 3 -37 3 -65 -1 -27 6 -73 15 -101 16 -50 12 -97 -6 -78 -5 5 -19
64 -30 132 -11 68 -25 131 -30 140 -6 10 -6 24 1 35 9 18 11 18 22 -4 8 -17
24 -26 54 -31z m486 39 c-2 -7 -13 -13 -24 -13 -25 0 -26 13 -2 19 29 8 32 7
26 -6z m-1244 -7 c0 -5 -5 -10 -11 -10 -5 0 -7 5 -4 10 3 6 8 10 11 10 2 0 4
-4 4 -10z m500 3 c0 -9 -144 -83 -160 -83 -17 0 6 35 37 55 39 26 123 45 123
28z m430 -7 c0 -8 -4 -18 -10 -21 -5 -3 -10 3 -10 14 0 12 5 21 10 21 6 0 10
-6 10 -14z m-660 -45 c-47 -58 -90 -71 -54 -15 18 26 74 67 82 59 2 -2 -10
-22 -28 -44z m1050 29 c-12 -22 -25 -26 -35 -10 -9 15 4 30 26 30 17 0 18 -3
9 -20z m-420 -19 c0 -23 -16 -36 -25 -21 -9 14 1 40 15 40 5 0 10 -9 10 -19z
m677 6 c-4 -11 29 -13 170 -12 96 0 176 -2 179 -6 15 -24 -88 -32 -241 -19
-61 6 -123 10 -138 10 -35 0 -32 21 4 31 13 4 26 7 28 8 2 1 1 -5 -2 -12z
m-727 -47 c12 -7 10 -14 -15 -40 -37 -39 -82 -64 -90 -50 -15 25 17 71 65 92
21 9 23 9 40 -2z m-1804 -76 c18 -14 18 -15 -6 -8 -14 3 -32 10 -40 15 -12 7
-11 8 6 9 11 0 29 -7 40 -16z m504 -4 c8 -5 11 -10 5 -10 -5 0 -17 5 -25 10
-8 5 -10 10 -5 10 6 0 17 -5 25 -10z m-453 -16 c-3 -3 -12 -4 -19 -1 -8 3 -5
6 6 6 11 1 17 -2 13 -5z m538 -4 c13 -5 14 -9 5 -9 -8 0 -24 4 -35 9 -13 5
-14 9 -5 9 8 0 24 -4 35 -9z m1055 -32 c0 -16 -3 -19 -11 -11 -6 6 -8 16 -5
22 11 17 16 13 16 -11z m-60 -8 c0 -16 -7 -20 -30 -20 -16 0 -30 5 -30 10 0 6
9 10 19 10 11 0 23 5 26 10 10 16 15 12 15 -10z m910 -38 c0 -33 -16 -18 -26
23 -7 27 -6 29 9 16 10 -7 17 -25 17 -39z m-1080 28 c0 -5 -4 -10 -9 -10 -6 0
-13 5 -16 10 -3 6 1 10 9 10 9 0 16 -4 16 -10z m490 -6 c0 -8 -5 -12 -10 -9
-6 4 -8 11 -5 16 9 14 15 11 15 -7z m-2020 -5 c0 -5 -4 -7 -10 -4 -5 3 -10 1
-10 -4 0 -6 -5 -11 -11 -11 -8 0 -8 5 1 15 14 17 30 20 30 4z m1062 5 c39 -7
43 -24 5 -24 -12 0 12 -12 53 -26 41 -15 79 -30 85 -35 30 -28 -182 14 -230
45 -32 21 -32 28 0 16 15 -6 34 -6 47 0 21 8 19 9 -12 10 -26 0 -31 3 -20 10
18 11 23 12 72 4z m607 -25 c12 -7 2 -9 -34 -5 -27 4 -54 11 -60 17 -13 14 70
3 94 -12z m1565 -18 c3 -5 -34 -50 -83 -100 -49 -50 -91 -94 -93 -99 -1 -4
-27 -23 -55 -42 -29 -18 -51 -35 -50 -37 2 -2 50 -5 105 -6 92 -3 123 -9 111
-21 -2 -3 -71 -7 -153 -10 -81 -2 -150 -7 -153 -9 -2 -3 6 -14 18 -25 21 -21
23 -51 5 -93 -5 -12 0 -18 18 -23 14 -3 26 -10 26 -15 0 -12 -108 -23 -128
-12 -9 5 -36 12 -60 16 -51 8 -47 20 10 29 35 6 40 9 26 17 -36 20 -12 66 51
99 19 10 21 14 10 21 -18 12 -94 11 -144 -1 -36 -9 -144 6 -205 28 -8 3 -18 6
-22 6 -3 1 -10 4 -14 9 -4 4 -19 7 -33 7 -19 0 -22 -3 -13 -12 9 -9 7 -14 -5
-23 -13 -10 -3 -16 63 -38 64 -21 236 -67 250 -67 2 0 4 -4 4 -9 0 -5 -32 -15
-71 -22 -54 -9 -81 -10 -117 -1 -26 6 -78 18 -117 27 -38 9 -88 23 -110 31
-22 7 -80 21 -129 30 -92 16 -435 111 -496 136 l-35 15 44 13 c37 12 40 15 22
22 -12 4 -21 12 -21 17 0 12 58 48 93 56 21 6 27 4 27 -10 0 -9 -11 -26 -25
-37 -14 -11 -23 -24 -20 -29 3 -5 32 -16 63 -25 31 -9 64 -19 72 -21 9 -3 8 0
-3 7 -17 11 -17 13 8 36 32 30 49 31 40 3 -5 -16 -3 -20 12 -17 14 2 18 -3 18
-24 -1 -16 5 -28 11 -28 7 0 21 -3 31 -6 14 -5 15 -4 4 4 -12 9 -10 12 12 17
20 5 33 2 47 -10 10 -9 25 -15 32 -12 8 3 2 9 -14 17 -30 14 -37 30 -13 30 17
0 18 23 5 90 -4 25 -7 46 -5 48 7 7 59 -116 64 -153 7 -44 35 -61 44 -25 4 15
13 20 40 20 22 0 37 6 41 15 6 17 70 12 125 -11 43 -18 49 -18 53 4 3 12 9 7
20 -18 12 -29 23 -37 59 -46 59 -15 219 3 246 29 11 9 27 17 37 17 13 0 15 -4
6 -19 -7 -14 -7 -22 0 -26 21 -13 75 24 149 99 40 42 80 76 88 76 8 0 31 16
51 36 51 50 113 77 126 55z m-1524 -15 c0 -18 -16 -29 -66 -49 -54 -21 -73 -9
-37 25 42 38 103 53 103 24z m1345 -6 c-10 -11 -30 -20 -44 -20 l-26 1 24 19
c13 11 32 20 44 20 19 0 20 -1 2 -20z m-797 -15 c61 1 62 0 62 -26 0 -20 -6
-28 -25 -33 -14 -4 -25 -11 -25 -16 0 -6 -7 -10 -16 -10 -12 0 -15 6 -11 20 4
17 -5 26 -56 50 -48 23 -54 28 -27 22 19 -4 63 -7 98 -7z m292 -41 c0 -7 -7
-14 -15 -18 -8 -3 -15 -13 -15 -23 0 -10 -4 -25 -10 -33 -15 -24 -47 14 -52
63 -3 23 -3 45 -1 49 6 11 93 -25 93 -38z m-647 10 c-3 -8 0 -26 8 -40 11 -21
10 -27 -4 -41 -15 -15 -17 -15 -26 8 -5 13 -10 20 -10 15 -1 -11 -31 14 -31
25 0 7 57 49 67 49 1 0 0 -7 -4 -16z m-1153 -51 c-23 -46 -18 -52 66 -78 30
-9 53 -19 51 -21 -4 -4 -79 10 -119 22 -12 4 -18 0 -18 -11 0 -9 -5 -13 -11
-9 -6 3 -9 17 -6 30 3 16 0 24 -9 24 -8 0 -14 -4 -14 -10 0 -19 -35 -50 -55
-50 -14 0 -27 -11 -38 -35 -10 -21 -28 -40 -44 -45 -80 -30 -138 -73 -148
-110 -5 -21 -4 -22 5 -7 6 9 18 17 25 17 8 0 15 4 15 9 0 5 21 21 46 35 34 19
51 23 63 16 13 -8 11 -9 -11 -10 -19 0 -26 -4 -22 -14 3 -8 -11 -27 -33 -45
-36 -29 -39 -30 -51 -14 -12 16 -13 14 -7 -12 4 -16 9 -36 11 -44 3 -8 2 -34
-2 -58 l-6 -44 -25 55 -26 55 -28 -14 c-37 -20 -55 -51 -38 -71 6 -8 17 -14
25 -14 13 0 47 -40 40 -48 -8 -7 -166 40 -166 50 0 5 -8 7 -17 4 -10 -2 -36
-1 -58 3 l-40 7 29 27 c16 15 37 27 47 27 9 0 63 36 118 80 55 44 106 80 114
80 8 0 22 9 33 21 22 25 141 109 154 109 5 0 42 29 82 65 40 36 76 65 80 65 3
0 -2 -17 -12 -37z m1420 17 c-20 -13 -33 -13 -25 0 3 6 14 10 23 10 15 0 15
-2 2 -10z m1088 -17 c-2 -10 -14 -21 -28 -25 -14 -4 -47 -14 -75 -22 -63 -19
-69 -14 -13 13 24 12 54 28 68 36 34 20 52 19 48 -2z m-3208 -28 c-44 -45 -59
-45 -23 0 15 19 35 35 42 35 9 0 2 -13 -19 -35z m2386 -11 c-3 -8 -11 -14 -18
-13 -10 0 -10 2 -1 6 8 3 11 15 7 31 -4 23 -4 25 6 9 7 -10 9 -25 6 -33z
m-1928 30 l31 -6 -32 -24 c-18 -13 -52 -34 -77 -46 -25 -13 -58 -33 -75 -44
-68 -48 -168 -89 -275 -111 -29 -6 -25 -3 40 49 65 51 86 61 163 75 36 7 35
23 -3 23 -17 0 -30 5 -30 13 0 19 33 35 86 42 27 3 67 12 89 20 48 17 45 17
83 9z m2352 -9 c0 -8 -7 -15 -15 -15 -16 0 -20 12 -8 23 11 12 23 8 23 -8z
m-2980 -86 c0 -14 -36 -11 -49 4 -8 11 -5 13 19 9 17 -2 30 -8 30 -13z m243
-6 c-3 -10 -30 -44 -60 -75 -29 -31 -53 -62 -53 -69 0 -7 -3 -9 -7 -5 -4 3
-25 -11 -47 -33 -44 -42 -113 -91 -128 -91 -14 0 77 113 142 178 94 93 169
140 153 95z m-163 -17 c0 -3 -4 -8 -10 -11 -5 -3 -10 -1 -10 4 0 6 5 11 10 11
6 0 10 -2 10 -4z m770 -73 c90 -29 89 -45 -1 -19 -74 22 -80 21 -74 -11 3 -16
10 -60 15 -98 5 -39 12 -79 16 -90 6 -15 4 -17 -12 -11 -10 5 -31 13 -46 18
-16 5 -25 14 -22 19 7 12 -8 11 -40 -1 -14 -5 -26 -16 -26 -23 0 -8 -14 -31
-30 -52 -28 -35 -29 -39 -13 -52 16 -12 14 -13 -17 -7 -19 4 -46 11 -60 16
l-25 10 27 10 c18 6 31 21 38 44 12 35 48 67 80 69 9 1 31 16 47 35 35 40 58
34 50 -14 l-6 -31 14 30 c15 32 13 47 -15 110 -34 77 -35 121 -1 91 9 -8 55
-27 101 -43z m529 26 c17 -6 31 -15 31 -21 0 -6 -7 -7 -16 -4 -9 3 -24 6 -35
6 -10 0 -19 7 -19 15 0 18 -1 18 39 4z m-64 -25 c13 -3 26 -12 29 -20 4 -11
-1 -13 -20 -8 -26 7 -26 6 -19 -37 3 -24 9 -52 12 -63 3 -11 1 -16 -5 -12 -5
3 -12 18 -15 33 -4 16 -13 50 -22 77 -13 43 -13 47 1 42 9 -3 26 -9 39 -12z
m2138 9 c-7 -2 -21 -2 -30 0 -10 3 -4 5 12 5 17 0 24 -2 18 -5z m-2246 -35
c-3 -8 -6 -5 -6 6 -1 11 2 17 5 13 3 -3 4 -12 1 -19z m273 2 c0 -5 -2 -10 -4
-10 -3 0 -8 5 -11 10 -3 6 -1 10 4 10 6 0 11 -4 11 -10z m1270 -15 c13 -16 8
-18 -27 -9 -13 4 -23 10 -23 15 0 15 37 10 50 -6z m-1625 -5 c3 -5 1 -10 -4
-10 -6 0 -11 5 -11 10 0 6 2 10 4 10 3 0 8 -4 11 -10z m2115 -9 c0 -13 -32
-47 -62 -66 -20 -12 -28 -13 -34 -4 -5 8 7 25 31 46 37 32 65 42 65 24z
m-2380 -8 c0 -5 4 -14 9 -22 7 -11 13 -9 30 8 23 23 30 25 50 12 20 -13 4 -47
-29 -61 -16 -7 -32 -21 -35 -31 -4 -11 -20 -26 -36 -34 -26 -14 -30 -14 -35
-1 -3 8 -1 23 5 35 14 25 14 34 1 26 -17 -10 -11 37 7 57 17 19 33 24 33 11z
m2241 -50 c6 -18 6 -30 -2 -39 -20 -24 -27 -15 -27 31 1 47 13 50 29 8z m174
-13 c3 -6 -5 -14 -19 -19 -18 -8 -23 -15 -19 -30 7 -26 47 -28 100 -6 44 18
53 19 53 2 0 -15 -54 -37 -91 -37 -13 0 -30 -4 -38 -9 -11 -7 -3 -12 30 -22
24 -6 63 -18 87 -25 51 -16 76 -18 67 -4 -10 16 27 11 70 -10 36 -17 37 -19
10 -14 -24 4 -20 0 20 -20 l50 -25 -50 6 c-67 8 -421 108 -439 124 -18 16 0
18 39 4 44 -16 84 -19 47 -4 -23 9 -23 9 20 54 45 47 53 51 63 35z m-665 -5
c0 -2 -5 -16 -12 -30 -9 -19 -16 -24 -32 -19 -30 9 -31 12 -11 34 16 17 55 28
55 15z m-920 -15 c0 -5 -5 -10 -11 -10 -5 0 -7 5 -4 10 3 6 8 10 11 10 2 0 4
-4 4 -10z m-1845 -10 c3 -5 -1 -10 -9 -10 -9 0 -16 5 -16 10 0 6 4 10 9 10 6
0 13 -4 16 -10z m1992 -10 c3 -11 20 -24 40 -31 51 -17 27 -31 -33 -20 -27 5
-57 13 -67 17 -16 6 -18 3 -12 -32 4 -22 11 -52 17 -67 14 -36 7 -41 -28 -23
-16 8 -40 19 -54 25 l-25 11 25 -4 c14 -2 33 -7 43 -11 13 -5 17 -2 17 12 0
10 -5 24 -11 30 -6 6 -8 25 -4 47 6 28 12 36 29 36 18 1 16 3 -9 15 l-30 13
48 1 c40 1 50 -2 54 -19z m-2149 -18 c2 -7 -3 -12 -12 -12 -9 0 -16 7 -16 16
0 17 22 14 28 -4z m2024 -67 c-8 -17 -20 -25 -37 -25 -32 0 -32 14 1 47 32 32
54 19 36 -22z m268 41 c0 -3 -4 -8 -10 -11 -5 -3 -10 -1 -10 4 0 6 5 11 10 11
6 0 10 -2 10 -4z m139 -25 c11 -7 9 -15 -10 -40 -12 -17 -31 -33 -41 -36 -9
-4 -27 -19 -38 -36 -24 -33 -29 -29 68 -60 71 -22 40 -25 -42 -3 -59 15 -126
44 -126 53 0 12 76 72 99 78 38 9 43 13 31 28 -9 10 -6 14 12 18 13 2 25 5 28
5 3 1 11 -2 19 -7z m-103 -16 c18 -13 17 -14 -18 -15 -55 0 -59 18 -7 29 3 0
14 -6 25 -14z m-86 -29 c0 -7 -9 -21 -20 -31 -12 -10 -18 -25 -16 -32 6 -15
-20 -18 -29 -3 -3 6 -15 10 -25 10 -29 0 -15 21 32 52 42 27 58 28 58 4z
m1197 2 c-3 -8 -6 -5 -6 6 -1 11 2 17 5 13 3 -3 4 -12 1 -19z m-1629 -8 c22
-11 49 -20 58 -20 10 0 14 -3 11 -7 -10 -9 -115 18 -128 34 -17 20 9 17 59 -7z
m-417 -30 c35 -10 89 -24 119 -30 30 -6 83 -21 118 -32 35 -11 73 -17 85 -14
12 3 40 0 62 -7 l40 -12 -90 -12 c-49 -6 -121 -18 -160 -27 -94 -20 -139 -21
-208 -3 -36 9 -85 13 -127 10 -58 -3 -71 -1 -87 16 -10 11 -39 22 -68 26 -77
11 -80 20 -8 21 55 0 68 4 82 23 14 19 28 22 106 26 50 3 92 5 95 5 3 0 -4 7
-14 15 -26 19 -21 19 55 -5z m2056 -12 c-3 -7 -5 -2 -5 12 0 14 2 19 5 13 2
-7 2 -19 0 -25z m-1489 3 c3 -8 -1 -12 -9 -9 -7 2 -15 10 -17 17 -3 8 1 12 9
9 7 -2 15 -10 17 -17z m509 13 c-3 -3 -12 -4 -19 -1 -8 3 -5 6 6 6 11 1 17 -2
13 -5z m97 -51 l81 -34 -55 6 c-30 4 -71 11 -90 16 -49 13 -60 11 -60 -8 0
-22 -6 -14 -24 29 l-15 36 41 -6 c23 -3 78 -20 122 -39z m843 25 c-3 -8 -6 -5
-6 6 -1 11 2 17 5 13 3 -3 4 -12 1 -19z m-2317 2 c0 -5 -9 -10 -20 -10 -11 0
-20 5 -20 10 0 6 9 10 20 10 11 0 20 -4 20 -10z m720 -15 c0 -18 -5 -25 -19
-25 -17 0 -18 3 -8 25 15 32 27 32 27 0z m-55 4 c11 -17 -1 -21 -15 -4 -8 9
-8 15 -2 15 6 0 14 -5 17 -11z m130 -19 c-3 -5 -1 -11 5 -15 16 -10 12 -25 -8
-25 -35 0 -59 52 -29 63 15 5 39 -12 32 -23z m790 0 c4 -6 -6 -10 -22 -10 -22
0 -25 2 -13 10 19 12 27 12 35 0z m1148 3 c-7 -2 -19 -2 -25 0 -7 3 -2 5 12 5
14 0 19 -2 13 -5z m-1839 -9 c26 -10 18 -27 -9 -20 -18 5 -27 2 -31 -9 -9 -21
-24 -19 -24 4 0 12 8 21 23 24 12 2 23 5 24 6 1 0 8 -2 17 -5z m1821 -24 c3
-5 -3 -10 -15 -10 -12 0 -18 5 -15 10 3 6 10 10 15 10 5 0 12 -4 15 -10z
m-3495 -65 c17 -9 30 -17 30 -19 0 -7 -45 7 -65 21 -27 18 -1 17 35 -2z m200
-41 c30 -11 32 -13 10 -13 -14 0 -43 8 -65 19 -35 17 -36 18 -10 13 17 -3 46
-12 65 -19z m-123 10 c-3 -3 -12 -4 -19 -1 -8 3 -5 6 6 6 11 1 17 -2 13 -5z
m-34 -24 c9 0 17 -4 17 -10 0 -12 -77 -13 -84 -1 -9 13 7 23 29 17 11 -3 28
-6 38 -6z"/>
<path d="M2110 3231 c0 -5 5 -13 10 -16 6 -3 10 -2 10 4 0 5 -4 13 -10 16 -5
3 -10 2 -10 -4z"/>
<path d="M2401 1444 c-19 -25 -20 -44 -2 -44 11 0 36 59 28 66 -2 3 -14 -7
-26 -22z"/>
<path d="M1850 821 c8 -6 28 -11 44 -11 39 0 31 6 -19 14 -29 5 -36 4 -25 -3z"/>
<path d="M1948 813 c7 -3 16 -2 19 1 4 3 -2 6 -13 5 -11 0 -14 -3 -6 -6z"/>
<path d="M487 3017 c-43 -40 -55 -58 -51 -74 8 -31 36 -19 76 35 34 46 54 92
38 92 -4 0 -32 -24 -63 -53z"/>
<path d="M425 2820 c-3 -11 -11 -20 -17 -20 -6 0 -8 -3 -5 -7 8 -7 47 25 47
39 0 16 -19 8 -25 -12z"/>
<path d="M2630 619 c0 -5 9 -9 20 -9 11 0 20 2 20 4 0 2 -9 6 -20 9 -11 3 -20
1 -20 -4z"/>
<path d="M2688 603 c7 -3 16 -2 19 1 4 3 -2 6 -13 5 -11 0 -14 -3 -6 -6z"/>
<path d="M2175 400 c3 -5 11 -10 16 -10 6 0 7 5 4 10 -3 6 -11 10 -16 10 -6 0
-7 -4 -4 -10z"/>
<path d="M3293 3445 c7 -23 15 -34 24 -31 7 3 13 1 13 -4 0 -5 15 1 34 13 l34
22 -27 12 c-38 18 -49 16 -54 -9 -3 -22 -4 -22 -15 5 -16 39 -22 34 -9 -8z"/>
<path d="M3450 3420 c0 -6 7 -10 15 -10 8 0 15 2 15 4 0 2 -7 6 -15 10 -8 3
-15 1 -15 -4z"/>
<path d="M3 3020 c-1 -11 1 -20 5 -20 4 0 17 -3 29 -6 33 -9 30 24 -3 36 -14
6 -26 10 -28 10 -1 0 -2 -9 -3 -20z"/>
<path d="M1320 2656 c0 -23 -192 -206 -280 -266 -19 -14 -67 -54 -106 -90 -40
-36 -109 -96 -154 -135 -46 -38 -109 -95 -140 -125 -84 -82 -267 -243 -293
-257 -16 -9 -18 -12 -6 -13 23 0 159 -45 211 -69 24 -11 77 -27 119 -36 78
-16 214 -61 329 -111 43 -18 85 -28 125 -30 73 -2 221 -38 366 -89 86 -30 106
-31 112 -7 3 13 7 10 15 -13 19 -49 26 -56 62 -70 19 -7 47 -17 63 -23 34 -14
34 -12 3 92 -13 45 -27 97 -31 116 -3 19 -15 72 -25 116 -18 76 -19 84 -4 128
9 26 20 44 24 39 8 -9 32 -125 56 -268 9 -55 20 -107 25 -116 5 -9 10 -39 12
-67 3 -53 17 -85 17 -39 0 40 10 57 35 57 13 0 27 5 30 10 4 6 3 10 -2 8 -4
-1 -23 2 -41 6 -29 7 -33 11 -27 29 15 47 27 124 27 162 -1 22 2 33 5 25 3 -8
11 -22 18 -30 7 -8 21 -44 30 -80 10 -36 21 -68 25 -73 9 -11 64 39 56 51 -3
6 0 13 6 16 10 5 10 7 1 12 -7 3 -13 17 -13 30 0 13 -5 24 -11 24 -5 0 -7 -4
-4 -10 3 -5 1 -10 -4 -10 -6 0 -11 6 -11 14 0 7 -9 16 -20 19 -11 3 -20 12
-20 20 0 19 30 31 44 17 12 -12 26 -13 26 -1 0 5 -13 14 -30 21 -30 12 -40 35
-19 42 13 4 21 88 8 89 -18 3 -25 5 -56 22 -36 19 -45 42 -13 34 25 -6 48 29
31 46 -6 6 -11 27 -11 47 0 41 -11 62 -30 58 -8 -2 -16 6 -18 16 -3 14 0 17
13 12 13 -5 16 -2 11 10 -3 8 -6 18 -6 20 0 2 -8 4 -17 4 -14 0 -15 2 -4 9 9
6 10 14 3 27 -5 11 -7 25 -5 32 3 6 0 12 -5 12 -20 0 -31 -27 -31 -75 -1 -28
-4 -87 -7 -133 -4 -66 -2 -94 12 -133 13 -34 15 -52 8 -57 -6 -4 -15 -32 -20
-62 l-10 -55 -18 78 c-9 43 -16 95 -15 117 2 21 0 42 -4 46 -4 4 -7 18 -7 31
0 14 -6 23 -15 23 -24 0 -17 29 13 57 16 15 22 27 15 30 -8 3 -9 13 -2 35 5
18 7 33 5 35 -2 2 -17 -8 -34 -22 -38 -32 -52 -32 -52 2 0 38 -14 19 -35 -47
-26 -80 -74 -110 -76 -47 -1 23 -3 26 -6 10 -2 -13 -9 -23 -15 -23 -6 0 -17
-8 -24 -17 -7 -10 -14 -13 -14 -6 0 6 4 14 9 18 6 3 4 17 -5 33 -7 15 -14 41
-14 57 0 63 -57 287 -126 495 -15 47 -27 102 -27 123 1 20 -1 37 -3 37 -2 0
-4 -6 -4 -14z m-50 -110 c0 -3 -4 -8 -10 -11 -5 -3 -10 -1 -10 4 0 6 5 11 10
11 6 0 10 -2 10 -4z m-46 -47 c-26 -29 -74 -62 -80 -56 -5 5 83 77 94 77 3 0
-3 -9 -14 -21z m36 -123 c0 -2 -8 -10 -17 -17 -16 -13 -17 -12 -4 4 13 16 21
21 21 13z m20 -43 c0 -5 -11 -21 -25 -37 -29 -33 -32 -28 -10 14 14 27 35 41
35 23z m-296 -26 c-2 -7 -14 -19 -27 -26 -21 -13 -21 -12 2 13 27 29 33 32 25
13z m366 -216 c0 -5 -6 -14 -14 -20 -16 -13 -188 -63 -194 -56 -11 10 23 35
47 35 14 0 49 11 76 24 52 26 85 32 85 17z m120 -73 c0 -9 -12 -26 -27 -38
-22 -16 -24 -20 -8 -16 11 3 27 1 35 -4 12 -8 11 -10 -6 -10 -25 0 -49 -24
-39 -40 3 -5 1 -10 -4 -10 -6 0 -11 9 -11 20 0 11 -2 20 -5 20 -3 0 -14 -9
-25 -20 -11 -11 -29 -20 -40 -20 -11 0 -20 -4 -20 -9 0 -12 -46 -20 -62 -10
-10 7 -4 16 22 36 19 16 66 53 105 84 68 55 84 58 85 17z m-776 23 c4 -5 -10
-27 -30 -49 -25 -29 -41 -38 -55 -35 -18 5 -16 10 22 49 45 45 54 50 63 35z
m176 -29 c0 -5 -11 -19 -25 -32 -23 -22 -25 -22 -22 -4 1 10 6 25 10 32 9 13
37 17 37 4z m789 -94 l0 -83 -16 58 c-15 58 -12 107 7 107 6 0 10 -35 9 -82z
m-105 -103 c24 -131 49 -325 43 -332 -12 -11 -29 49 -82 284 -11 52 -13 78 -6
91 6 11 8 22 5 25 -3 3 -3 11 1 17 13 21 25 -4 39 -85z m-63 40 c-5 -20 -126
-137 -251 -244 -52 -45 -60 -68 -21 -63 12 2 28 -1 34 -6 7 -5 45 -13 85 -17
39 -4 75 -11 78 -16 3 -5 12 -9 21 -9 13 0 13 3 3 16 -8 8 -15 29 -17 46 -2
17 -8 37 -15 45 -14 18 -3 29 15 14 12 -9 15 -3 19 33 3 24 16 61 28 82 20 32
24 34 30 18 4 -10 5 -51 2 -91 -3 -52 -9 -77 -23 -92 -24 -25 -24 -59 -2 -83
16 -18 15 -19 -28 -12 -58 8 -98 17 -194 44 -44 12 -93 19 -110 17 -32 -6
-105 11 -105 23 0 5 12 11 27 15 15 3 56 35 92 69 110 106 195 178 220 187 22
9 23 11 7 22 -15 11 -11 12 25 9 25 -3 39 0 36 5 -3 5 7 10 22 10 24 0 28 -3
22 -22z m143 -30 c4 -25 11 -45 17 -45 12 0 12 -67 0 -74 -5 -3 -10 -54 -10
-113 -2 -147 -13 -157 -32 -29 -9 59 -9 80 0 85 8 5 6 13 -8 25 -14 13 -20 32
-21 65 0 25 -2 57 -3 71 -2 16 4 31 17 42 30 25 33 23 40 -27z m-378 14 c9
-15 -36 -57 -66 -61 -36 -4 -31 17 10 46 40 29 46 30 56 15z m-813 -14 c-3 -9
-8 -14 -10 -11 -3 3 -2 9 2 15 9 16 15 13 8 -4z m705 -27 c-3 -7 -14 -15 -25
-18 -12 -3 -31 -17 -43 -32 -12 -16 -35 -30 -55 -34 -19 -3 -33 -11 -32 -16 1
-6 -11 -15 -28 -19 -39 -11 -58 7 -22 20 15 6 27 15 27 20 0 5 15 15 34 21 19
6 51 24 72 41 37 29 79 39 72 17z m-288 -98 c23 -14 6 -22 -64 -27 -65 -6
-124 2 -112 15 7 6 82 18 136 20 14 1 32 -2 40 -8z m980 -50 c0 -13 -1 -13
-10 0 -5 8 -10 22 -10 30 0 13 1 13 10 0 5 -8 10 -22 10 -30z m-313 -22 c-3
-8 -6 -5 -6 6 -1 11 2 17 5 13 3 -3 4 -12 1 -19z m173 -104 c5 -27 13 -66 18
-86 6 -22 6 -38 1 -38 -5 0 -9 8 -10 18 0 10 -3 12 -6 5 -2 -7 -14 -13 -25
-13 -11 0 -18 5 -15 13 2 6 10 11 16 9 7 -1 9 7 6 25 -15 73 -17 93 -11 109 9
24 16 14 26 -42z m-20 -154 c13 -8 13 -10 -2 -10 -9 0 -20 5 -23 10 -8 13 5
13 25 0z"/>
<path d="M3970 2620 l-25 -8 28 -1 c15 -1 27 4 27 9 0 6 -1 10 -2 9 -2 -1 -14
-5 -28 -9z"/>
<path d="M10 2550 c20 -13 33 -13 25 0 -3 6 -14 10 -23 10 -15 0 -15 -2 -2
-10z"/>
<path d="M1704 2393 c-9 -83 -11 -280 -2 -288 3 -4 17 0 30 9 18 12 27 32 37
79 12 59 11 70 -15 165 -15 56 -31 102 -35 102 -4 0 -11 -30 -15 -67z"/>
<path d="M1647 2363 c4 -21 12 -51 19 -68 l13 -30 1 29 c0 35 -20 106 -31 106
-4 0 -5 -17 -2 -37z"/>
<path d="M1790 2164 c0 -8 5 -12 10 -9 6 3 10 10 10 16 0 5 -4 9 -10 9 -5 0
-10 -7 -10 -16z"/>
<path d="M3984 1818 c-10 -16 -7 -89 5 -118 8 -20 10 -10 10 53 1 77 -1 87
-15 65z"/>
<path d="M248 1753 c7 -3 16 -2 19 1 4 3 -2 6 -13 5 -11 0 -14 -3 -6 -6z"/>
<path d="M1966 1747 c3 -10 9 -15 12 -12 3 3 0 11 -7 18 -10 9 -11 8 -5 -6z"/>
<path d="M198 1743 c7 -3 16 -2 19 1 4 3 -2 6 -13 5 -11 0 -14 -3 -6 -6z"/>
<path d="M927 1326 c-4 -10 1 -20 13 -26 30 -16 42 -12 38 13 -4 26 -42 36
-51 13z"/>
<path d="M0 734 c0 -25 2 -26 36 -20 41 8 97 -1 88 -15 -3 -5 -31 -9 -63 -9
l-58 0 -1 -45 c-1 -25 1 -45 5 -45 4 0 20 12 35 27 15 15 49 38 75 52 26 14
48 31 50 37 3 10 -45 19 -139 27 -9 1 -14 5 -12 9 3 4 0 8 -5 8 -6 0 -11 -12
-11 -26z"/>
<path d="M1285 590 c-3 -6 1 -7 9 -4 18 7 21 14 7 14 -6 0 -13 -4 -16 -10z"/>
<path d="M3560 261 c0 -5 5 -13 10 -16 6 -3 10 -2 10 4 0 5 -4 13 -10 16 -5 3
-10 2 -10 -4z"/>
<path d="M2823 224 c-7 -3 -10 -16 -7 -33 4 -18 0 -32 -10 -40 -9 -8 -16 -24
-16 -37 0 -13 -9 -33 -20 -44 -24 -24 -17 -28 55 -33 28 -2 57 -7 66 -11 12
-5 20 1 30 23 17 39 27 40 21 3 -7 -49 16 -52 356 -52 323 1 377 11 160 31
-62 6 -131 14 -153 18 -38 8 -39 8 -16 18 25 10 25 10 -10 22 -75 28 -139 39
-147 26 -10 -18 -34 -23 -58 -14 -14 5 -28 3 -40 -6 -20 -15 -12 -19 33 -16
11 1 24 -3 28 -9 5 -8 -5 -11 -31 -10 -22 1 -41 1 -44 0 -33 -11 -48 -7 -53
12 -7 27 -1 38 22 38 10 0 24 6 30 14 8 9 25 13 47 10 38 -5 47 11 12 22 -13
3 -31 15 -41 25 -21 23 -46 25 -53 4 -4 -8 -11 -15 -16 -15 -6 0 -8 7 -4 15 7
19 -40 21 -47 3 -4 -8 -8 -4 -12 10 -4 12 -12 22 -19 22 -6 0 -20 2 -31 5 -11
2 -25 2 -32 -1z m57 -64 c0 -5 -2 -10 -4 -10 -3 0 -8 5 -11 10 -3 6 -1 10 4
10 6 0 11 -4 11 -10z m-42 -98 c2 -7 -6 -12 -17 -12 -21 0 -27 11 -14 24 9 9
26 2 31 -12z"/>
<path d="M0 75 c0 -73 1 -75 25 -75 27 0 32 9 14 27 -9 9 -9 23 -1 53 8 33 7
43 -5 55 -27 27 -33 16 -33 -60z"/>
</g>
</svg>
