<?xml version="1.0" standalone="no"?>
<!DOCTYPE svg PUBLIC "-//W3C//DTD SVG 20010904//EN"
 "http://www.w3.org/TR/2001/REC-SVG-20010904/DTD/svg10.dtd">
<svg version="1.0" xmlns="http://www.w3.org/2000/svg"
 width="972.000000pt" height="972.000000pt" viewBox="0 0 972.000000 972.000000"
 preserveAspectRatio="xMidYMid meet">
<metadata>
Created by potrace 1.14, written by Peter Selinger 2001-2017
</metadata>
<g transform="translate(0.000000,972.000000) scale(0.100000,-0.100000)"
fill="#000000" stroke="none">
<path d="M2185 7285 c-325 -42 -697 -188 -997 -391 -572 -386 -940 -976 -1045
-1675 -24 -160 -24 -501 0 -665 117 -799 607 -1478 1322 -1829 245 -121 464
-190 726 -232 161 -25 549 -25 702 0 608 102 1055 358 1424 817 219 273 417
661 503 990 14 52 24 41 34 -35 19 -134 84 -376 147 -542 145 -384 401 -752
684 -983 311 -254 722 -424 1165 -482 123 -16 459 -16 575 0 548 76 1012 298
1394 667 399 386 646 881 722 1445 17 122 17 458 0 580 -74 551 -309 1035
-686 1416 -396 399 -918 649 -1515 725 -121 16 -429 16 -540 0 -230 -32 -402
-75 -565 -140 l-95 -39 -36 35 c-96 90 -240 112 -353 53 -79 -41 -171 -180
-171 -259 0 -60 47 -166 95 -216 l44 -44 -381 -764 -380 -763 -103 0 -102 0
-380 764 -381 763 43 45 c53 54 89 139 89 209 0 72 -45 165 -106 220 -110 99
-282 103 -397 8 l-24 -19 -86 51 c-248 150 -541 256 -801 290 -136 18 -385 18
-525 0z m413 -75 c218 -20 449 -82 651 -176 78 -36 291 -152 291 -158 0 0 -7
-33 -15 -73 -15 -74 -10 -139 16 -196 10 -23 10 -29 -3 -40 -9 -6 -723 -578
-1587 -1270 -864 -692 -1575 -1256 -1581 -1252 -16 10 -89 252 -115 384 -35
176 -45 282 -45 463 0 428 118 847 344 1217 335 550 903 944 1543 1070 188 38
327 46 501 31z m4707 -205 c233 -24 421 -69 640 -153 400 -153 721 -382 993
-707 217 -259 400 -634 476 -977 74 -332 72 -710 -4 -1038 -35 -147 -127 -411
-153 -436 -9 -9 -96 67 -363 315 -193 179 -526 488 -740 686 -214 198 -427
396 -474 440 -78 74 -763 709 -1235 1145 -110 102 -222 206 -249 231 l-50 47
20 43 c14 33 19 66 19 140 l0 97 30 12 c363 145 710 194 1090 155z m-1316 -80
c73 -37 115 -107 115 -190 0 -129 -87 -215 -216 -215 -149 0 -249 151 -194
295 20 50 82 112 123 121 16 3 33 7 38 10 18 7 108 -7 134 -21z m-2364 -425
c4 -6 30 -23 58 -37 46 -24 63 -27 143 -27 l91 1 382 -765 382 -764 -37 -36
c-41 -40 -79 -116 -89 -178 l-6 -41 -167 -26 c-92 -14 -329 -51 -527 -82 -198
-31 -443 -69 -545 -85 -102 -16 -261 -41 -355 -55 -93 -14 -224 -34 -290 -45
-66 -10 -226 -35 -355 -55 -129 -19 -318 -49 -420 -65 -102 -16 -275 -43 -385
-60 -110 -17 -256 -39 -325 -50 -581 -91 -660 -103 -660 -97 0 3 152 126 338
275 185 149 879 704 1542 1235 663 531 1208 966 1212 966 4 1 10 -4 13 -9z
m2935 -445 c184 -170 431 -400 550 -509 118 -110 249 -231 290 -269 41 -39 98
-91 125 -117 545 -505 955 -885 1180 -1094 379 -351 397 -368 392 -373 -4 -3
-768 177 -1472 347 -88 21 -295 71 -460 110 -441 104 -445 105 -1505 358
l-495 118 -8 54 c-10 73 -46 149 -91 192 l-37 36 382 764 382 765 91 -1 c84
-1 95 1 146 30 l55 32 70 -67 c39 -36 221 -205 405 -376z m-1612 -1204 c173
-89 156 -345 -27 -400 -212 -63 -373 192 -223 353 60 64 175 85 250 47z m-365
-326 c23 -49 84 -113 128 -136 l38 -19 -20 -72 c-85 -304 -282 -687 -486 -942
-82 -102 -275 -292 -368 -363 -278 -210 -591 -343 -950 -404 -156 -27 -461
-36 -617 -19 -431 46 -832 204 -1177 463 -195 147 -399 365 -543 583 -82 123
-172 290 -163 304 3 5 17 10 30 10 13 0 109 13 212 30 103 16 262 41 353 55
91 14 248 39 350 55 102 16 291 46 420 65 129 20 289 45 355 55 66 11 210 33
320 50 110 17 270 42 355 55 85 13 245 38 355 55 110 17 270 42 355 55 188 30
500 78 710 110 85 13 180 28 210 33 103 18 114 16 133 -23z m1453 -195 c483
-116 962 -231 1064 -255 102 -24 478 -114 835 -200 358 -85 724 -173 815 -194
91 -22 228 -54 305 -72 77 -17 141 -33 143 -34 2 -2 -26 -52 -61 -111 -285
-479 -736 -840 -1267 -1014 -240 -79 -402 -108 -655 -117 -392 -14 -767 68
-1118 243 -518 260 -905 759 -1091 1409 -25 85 -76 328 -76 360 0 8 20 23 44
33 54 24 116 80 141 126 11 20 24 36 30 36 6 0 407 -95 891 -210z"/>
</g>
</svg>
